<svg id="Calque_1" data-name="Calque 1" xmlns="http://www.w3.org/2000/svg" viewBox="0 0 958 388"><defs><style>.cls-1{fill:#fff;}</style></defs><path class="cls-1" d="M307.82,244.19c3.56-5.34,2.4-7.92.36-9.16a5.19,5.19,0,0,0-6.64,1.2,35.49,35.49,0,0,1-5.48,5l4.91-29.7a7.12,7.12,0,0,0-14.05-2.32L280,251c-5.91,3.07-11.88,5.78-16.6,7.82a4.2,4.2,0,0,1-5.55-5.43l1.54-12.28,18.32-16.59A7.12,7.12,0,0,0,268.18,214l-6.05,5.48,1.49-11.91,39.69-27.26a7.12,7.12,0,1,0-8.06-11.73L266,188.69l1.67-13.33a7,7,0,0,0,3.41-1.78l18.38-17.32a7.23,7.23,0,0,0,.6-10,7.12,7.12,0,0,0-10.24-.49l-9.06,8.54a6.34,6.34,0,0,0-.29-1.29l2.48-19.74a5.42,5.42,0,0,0-1.95-4.86h0a5.39,5.39,0,0,0-8.74,3.35l-.54,3.41-12.62-25.46a7.12,7.12,0,1,0-12.76,6.32l21,42.34a6.88,6.88,0,0,0,.59,1l-2.06,13.12-11.8-18.27a7.11,7.11,0,0,0-11.95,7.71L250,189.62a7,7,0,0,0,2.81,2.51l-3.23,20.57-11.7-14a7.11,7.11,0,0,0-10.22-.73,7.24,7.24,0,0,0-.59,10l19.58,23.42-2.26,14.38L234,235a7.12,7.12,0,0,0-10.25,9.88l14.14,14.67a7.69,7.69,0,0,0,1.07.91c-11.51,14.08-40.16,38.71-41.75,37.47-3.2-2.49,3.1-25,3.91-28.1l.06-.25a156.67,156.67,0,0,0,4.22-23.24l.4-3.71A7.13,7.13,0,0,0,209,241l13.88-12.09a7.12,7.12,0,0,0-9.36-10.73l-5.65,4.92,1.95-18.22a7,7,0,0,0,1.67-.95l18-13.77a7.22,7.22,0,0,0,1.62-9.87A7.12,7.12,0,0,0,221,178.76l-9.13,7,3.2-30.07c.19-.09.39-.18.58-.29l20.13-11.3a7.22,7.22,0,0,0,3-9.54,7.11,7.11,0,0,0-9.81-3l-12,6.76,5.31-49.84a8.4,8.4,0,0,0-2.75-7.42h0c-5.13-4.54-8.63-1.37-9.31,5.45l-.61,5-11-19.78a7.11,7.11,0,1,0-12.44,6.9L206,114.58q.25.44.54.84l-2,16.06L191.7,112.15a7.12,7.12,0,0,0-11.84,7.9l22.06,33.08L200.09,168,190.56,151a7.11,7.11,0,1,0-12.4,7L197,191.51l-8.53,61.76a2,2,0,0,1-3.7.63l0,0-10.37-22c0-.1.07-.19.09-.29l10.58-36.64a7.12,7.12,0,0,0-13.68-4l-6.17,21.41-4.51-9.57c-.71-1.5-1.39-3-2.06-4.54l8.77-33a7.12,7.12,0,1,0-13.76-3.65l-3.44,13a177.56,177.56,0,0,1-4.56-21.46l-.3-2.18a7.16,7.16,0,0,0,1-1.15l18.14-25.26a7.12,7.12,0,0,0-1.84-10.08,7.23,7.23,0,0,0-9.82,1.92l-10.32,14.37-.22-1.53a32.64,32.64,0,0,1,5-22.31l10.28-15.78,11.91,6.65a7,7,0,0,0,3.47.91,7.12,7.12,0,0,0,3.48-13.33l-11.07-6.19,10.93-16.78a5.8,5.8,0,0,0-1.9-8.16h0a5.48,5.48,0,0,0-7.29,1.71L140.23,95.49a1.47,1.47,0,0,1-2.67-.62l-2.12-15.24a5.52,5.52,0,0,0-11,1.36l1.23,13.1-4.87-4.24a7.24,7.24,0,0,0-10,.39,7.13,7.13,0,0,0,.52,10.24l16.27,14.15,1.12,12L104.9,107a7.12,7.12,0,0,0-9,11l33.45,27.39a6.54,6.54,0,0,0,1.49.94q1.16,8.58,2.93,17L114.58,147.3a7.12,7.12,0,1,0-9.16,10.89l33.44,28.11a7.91,7.91,0,0,0,1.09.76c1.33,4.19,2.76,8.35,4.32,12.46a7.15,7.15,0,0,0,1,2.53c.44,1.12.88,2.24,1.34,3.36L135.41,204a7.11,7.11,0,1,0-1.73,14.12l19.69,2.42c.82,1.68,1.67,3.36,2.53,5l1.85,3.57-9.38.06a7.12,7.12,0,0,0,0,14.24h.06l14.36-.11a7,7,0,0,0,2.1-.33l14.79,28.54c3.92,8.9-1.78,18.51-8.89,18.51-1,0-4.56-1.62-9.84-4.39a6.44,6.44,0,0,0,.36-.63l7.69-15.69a7.12,7.12,0,0,0-12.79-6.26l-7.68,15.69a.36.36,0,0,1,0,.09c-2.77-1.56-5.73-3.24-8.84-5l9.55-16.53a7.12,7.12,0,1,0-12.33-7.11l-9.54,16.52-4.45-2.6a41.24,41.24,0,0,1-4.23-2.86l14.84-24.85a7.12,7.12,0,0,0-12.22-7.3l-12.48,20.9a39.14,39.14,0,0,1-4.62-12.14l-.93-4.64,20.82-31.4A7.12,7.12,0,1,0,112.25,194L99.34,213.48l-3.58-17.94c.11-.11.23-.22.33-.34L107.84,182a7.12,7.12,0,0,0-10.63-9.47l-4.93,5.54-9.59-48a5.74,5.74,0,1,0-11.3,2l2.82,15.13-14.09-6.93a7.12,7.12,0,0,0-6.28,12.77l21.71,10.68a6.76,6.76,0,0,0,1.86.61l3.18,17-36.66-19.3A7.11,7.11,0,1,0,37.3,174.7l46.61,24.55h0l8.38,44.9a1,1,0,0,1-1.45,1l-8.29-5-2.85-27a7.11,7.11,0,1,0-14.15,1.49L67.28,231l-6-3.65a7.49,7.49,0,0,0-.11-1.48l-6-34.16a7.11,7.11,0,0,0-14,2.48l4.15,23.45-3.49-2.12a5.17,5.17,0,0,0-7.6,6c0,.07,0,.14.07.21.46,1.32,4.42,4.43,10.67,8.68l-8.46,4.14a7.12,7.12,0,0,0,6.26,12.79l16.12-7.89c10.11,6.35,22.35,13.72,34.77,21.07a4.41,4.41,0,0,1-.72,7.94l-13.51,5L67.4,253.05a7.12,7.12,0,0,0-12.29,7.18l10.67,18.26-6.41,2.36L48,263.13a7.11,7.11,0,0,0-10-2,7.22,7.22,0,0,0-1.85,9.83l9.56,14.95-6,2.22a5.13,5.13,0,0,0-3.33,5.77,5,5,0,0,0,6.51,3.79l5.48-1.8-1,15.85a7.11,7.11,0,0,0,6.67,7.53h.44a7.11,7.11,0,0,0,7.09-6.68L62.9,291.1,79,285.8l-2.12,34.81a7.11,7.11,0,0,0,6.67,7.53l.44,0a7.12,7.12,0,0,0,7.1-6.69L93.59,281l9.71-3.19a29.78,29.78,0,0,1,24.15,2.51c-.08.12-.16.23-.23.35L105,318.11a7.12,7.12,0,1,0,12.23,7.28l9.58-16.1,13.68,16.63a7.12,7.12,0,0,0,11-9L134.5,296.3l4.95-8.32c.1-.18.2-.36.29-.55,8.48,4.87,15,8.62,18.29,10.48a23.07,23.07,0,0,1,11.36,16.22A17.85,17.85,0,0,0,187,328.67h.25A17.74,17.74,0,0,0,203.72,317a36.37,36.37,0,0,1,1.63-3.81c5-12.87,17.5-22.54,27.66-28.59a7,7,0,0,0,1.34,1.44l4.48,3.6L218,315.5A7.11,7.11,0,1,0,229,324.44l20.89-25.86,5.24,4.22L244.92,316a7.12,7.12,0,1,0,11.24,8.74l10.09-13,11.85,9.53A7.12,7.12,0,0,0,287,310.16l-40.36-32.47,1-.41s6.6-2.79,15.46-6.87c.16.15.33.29.51.43l29.89,22.77a7.11,7.11,0,0,0,8.62-11.32l-24.63-18.77c2.81-1.4,5.62-2.84,8.35-4.29l9.83,7.37a7.11,7.11,0,1,0,8.54-11.38l-5-3.76C303.35,248.76,306.45,246.25,307.82,244.19Z"/><path class="cls-1" d="M494.73,263.14a42.71,42.71,0,1,1-.38-60.8,9.66,9.66,0,0,0,13.49-13.84,62,62,0,1,0,.56,88.31,9.67,9.67,0,0,0-13.67-13.67Z"/><path class="cls-1" d="M582.83,170.89a62,62,0,1,0,62,62A62.11,62.11,0,0,0,582.83,170.89Zm0,104.76a42.72,42.72,0,1,1,42.71-42.72A42.76,42.76,0,0,1,582.83,275.65Z"/><path class="cls-1" d="M876.24,170.89a9.66,9.66,0,0,0-9.67,9.66V286.09a9.67,9.67,0,1,0,19.33,0V180.55A9.65,9.65,0,0,0,876.24,170.89Z"/><path class="cls-1" d="M836.32,170.89a9.66,9.66,0,0,0-9.66,9.66v8.95a62,62,0,1,0,0,86.87v9.72a9.67,9.67,0,1,0,19.33,0V180.55A9.66,9.66,0,0,0,836.32,170.89ZM782.39,275.65a42.72,42.72,0,1,1,42.72-42.72A42.76,42.76,0,0,1,782.39,275.65Z"/><path class="cls-1" d="M917.51,98.81a9.66,9.66,0,0,0-9.67,9.66V286.09a9.67,9.67,0,1,0,19.33,0V108.47A9.65,9.65,0,0,0,917.51,98.81Z"/><circle class="cls-1" cx="876.24" cy="145.95" r="9.86"/><path class="cls-1" d="M697.45,170.89a39.66,39.66,0,0,0-21.17,6.1,9.66,9.66,0,0,0-9.56-6.09,9.85,9.85,0,0,0-9.09,9.94V285.77a9.87,9.87,0,0,0,9.49,10,9.66,9.66,0,0,0,9.84-9.66V211.17c0-11.17,8.74-20.63,19.9-20.95a20.47,20.47,0,0,1,8.7,1.67,9.76,9.76,0,0,0,11.58-2.71l0-.06a9.62,9.62,0,0,0-3.55-14.79A39.57,39.57,0,0,0,697.45,170.89Z"/></svg>
