<svg id="Calque_1" data-name="Calque 1" xmlns="http://www.w3.org/2000/svg" viewBox="0 0 1400 1400"><defs><style>.cls-1{fill:#e57f84;}</style></defs><path class="cls-1" d="M1078.75,572.28c10.24-15.37,6.91-22.79,1-26.38a15,15,0,0,0-19.11,3.46,100.67,100.67,0,0,1-15.78,14.47L1059,478.31a20.48,20.48,0,1,0-40.42-6.68L998.7,592c-17,8.82-34.18,16.64-47.77,22.5a12.08,12.08,0,0,1-16-15.62l4.44-35.37,52.74-47.76a20.49,20.49,0,1,0-27.51-30.37L947.2,501.16l4.3-34.27,114.26-78.49a20.49,20.49,0,0,0-23.2-33.78L958.32,412.5l4.81-38.37A20.38,20.38,0,0,0,973,369l52.91-49.86c8.08-7.61,9-20.38,1.72-28.74A20.47,20.47,0,0,0,998.12,289L972,313.57a20.46,20.46,0,0,0-.84-3.71L978.32,253a15.53,15.53,0,0,0-5.61-14h0a15.54,15.54,0,0,0-25.17,9.65L946,258.51,909.65,185.2a20.49,20.49,0,0,0-36.71,18.2l60.44,121.9a19.75,19.75,0,0,0,1.69,2.81l-5.92,37.78-34-52.61a20.48,20.48,0,0,0-34.42,22.22l51.43,79.69a20.35,20.35,0,0,0,8.07,7.22L911,481.63l-33.67-40.29a20.49,20.49,0,0,0-29.42-2.09c-8.27,7.42-8.83,20.22-1.7,28.75l56.35,67.42L896,576.83,866.1,545.77a20.48,20.48,0,0,0-29.5,28.43l40.71,42.24a20.38,20.38,0,0,0,3.08,2.61C847.25,659.61,764.77,730.52,760.18,727c-9.22-7.17,8.94-72,11.27-80.92l.18-.7a450.63,450.63,0,0,0,12.14-66.92l1.14-10.69a20.37,20.37,0,0,0,9.22-4.58l40-34.83a20.49,20.49,0,0,0-26.92-30.89l-16.27,14.19,5.59-52.46a20.39,20.39,0,0,0,4.83-2.74l51.85-39.65c8.82-6.74,11.09-19.35,4.66-28.41a20.48,20.48,0,0,0-29.16-4.43L802.36,404l9.22-86.56c.56-.25,1.11-.52,1.65-.82l58-32.54c9.69-5.44,13.71-17.6,8.62-27.47a20.49,20.49,0,0,0-28.25-8.5L816.9,267.6l15.29-143.47a24.2,24.2,0,0,0-7.92-21.37h0c-14.77-13.08-24.83-3.94-26.8,15.7l-1.76,14.29L764.15,75.82a20.49,20.49,0,0,0-35.84,19.87l57.37,103.46a20.58,20.58,0,0,0,1.56,2.4l-5.7,46.24-37.09-55.63a20.49,20.49,0,0,0-34.09,22.73l63.5,95.24-5.27,42.74L741.16,304.1a20.49,20.49,0,1,0-35.71,20.09l54.24,96.42L735.15,598.42a5.68,5.68,0,0,1-10.66,1.8l0-.09-29.87-63.35c.1-.27.2-.54.28-.82l30.44-105.5a20.49,20.49,0,1,0-39.37-11.36l-17.78,61.62-13-27.53c-2-4.33-4-8.69-5.92-13.06L674.48,345a20.49,20.49,0,0,0-39.6-10.51L625,371.86a510.39,510.39,0,0,1-13.12-61.8L611,303.8a20.14,20.14,0,0,0,3-3.31l52.24-72.72a20.5,20.5,0,0,0-5.3-29c-9.25-6.16-21.79-3.51-28.27,5.51l-29.72,41.38-.62-4.4A94,94,0,0,1,616.64,177l29.61-45.43,34.29,19.16a20.49,20.49,0,0,0,20-35.77l-31.85-17.8,31.47-48.32a16.68,16.68,0,0,0-5.46-23.48h0a15.78,15.78,0,0,0-21,4.92l-77.42,113.9a4.23,4.23,0,0,1-7.68-1.79l-6.09-43.88A15.89,15.89,0,0,0,551,102.45l3.53,37.72-14-12.21c-8.38-7.3-21.19-7-28.77,1.12a20.49,20.49,0,0,0,1.5,29.46L560,199.3l3.22,34.4-68.69-56.27a20.49,20.49,0,0,0-26,31.7L564.87,288a20.76,20.76,0,0,0,4.3,2.7q3.35,24.69,8.44,49l-55.2-46.4A20.49,20.49,0,0,0,496,324.71l96.29,80.92a21.11,21.11,0,0,0,3.13,2.17q5.73,18.1,12.43,35.89a20.55,20.55,0,0,0,2.79,7.28q1.89,4.84,3.86,9.66l-32.14-3.95a20.49,20.49,0,1,0-5,40.67l56.68,7q3.55,7.28,7.29,14.47l5.32,10.28-27,.2a20.49,20.49,0,0,0,.15,41H620l41.35-.3a20.47,20.47,0,0,0,6-1L710,651.15c11.27,25.61-5.12,53.26-25.61,53.26-3,0-13.11-4.65-28.31-12.61a20.46,20.46,0,0,0,1-1.83l22.12-45.17a20.48,20.48,0,1,0-36.79-18L620.3,672c0,.08-.06.17-.1.25-8-4.49-16.52-9.32-25.46-14.44l27.49-47.58a20.49,20.49,0,1,0-35.48-20.49l-27.48,47.56q-6.35-3.69-12.82-7.49a113.32,113.32,0,0,1-12.17-8.23L577,550a20.49,20.49,0,1,0-35.17-21l-36,60.18a113.08,113.08,0,0,1-13.29-35l-2.67-13.35,59.94-90.41a20.49,20.49,0,1,0-34.15-22.64l-37.17,56.06-10.31-51.64c.33-.32.66-.63,1-1l33.8-37.9a20.48,20.48,0,0,0-30.57-27.27L458.21,382l-27.6-138.23c-2.44-12.19-17-17.87-26.68-10.05a16.53,16.53,0,0,0-5.85,15.88l8.13,43.57-40.57-19.95A20.49,20.49,0,0,0,347.56,310L410,340.73a21.14,21.14,0,0,0,5.37,1.77l9.15,49.06L319,336a20.48,20.48,0,1,0-19.09,36.25L434.12,442.9h0l24.11,129.26a2.78,2.78,0,0,1-4.16,2.9l-23.88-14.3L422,483.07a20.48,20.48,0,0,0-40.74,4.28l4.94,46.95-17.36-10.49a20.66,20.66,0,0,0-.3-4.27L351.17,421.2a20.49,20.49,0,0,0-40.35,7.15l12,67.5-10.06-6.12c-11.84-7.21-26.25,4.25-21.88,17.41.06.2.13.4.2.61,1.33,3.79,12.73,12.74,30.73,25L297.4,544.66a20.49,20.49,0,1,0,18,36.8l46.44-22.72C391,577,426.17,598.25,461.94,619.42a12.71,12.71,0,0,1-2.08,22.86L421,656.62l-34.38-58.83a20.48,20.48,0,0,0-35.37,20.67L381.92,671l-18.46,6.8-32.62-51A20.49,20.49,0,0,0,301.92,621c-9.14,6.31-11.32,18.94-5.34,28.29l27.53,43.05-17.31,6.38a14.78,14.78,0,0,0-9.56,16.64A14.5,14.5,0,0,0,316,726.23l15.78-5.17L329,766.68a20.49,20.49,0,0,0,19.21,21.69c.42,0,.84,0,1.26,0a20.49,20.49,0,0,0,20.43-19.25l3.75-61.84,46.47-15.24L414,792.29A20.49,20.49,0,0,0,433.21,814c.42,0,.84,0,1.26,0a20.5,20.5,0,0,0,20.43-19.25L462,678.34l28-9.18a85.62,85.62,0,0,1,69.52,7.23c-.23.33-.47.66-.68,1L494.69,785.1a20.49,20.49,0,1,0,35.21,21l27.59-46.35,39.37,47.86a20.49,20.49,0,1,0,31.64-26l-48.74-59.25L594,698.36c.31-.52.58-1.06.84-1.59,24.42,14,43.31,24.81,52.66,30.18,20.63,11.85,29.41,29.91,32.71,46.69C685,798,706.17,815.77,731,815.5h.7A51.06,51.06,0,0,0,779,781.94a103.12,103.12,0,0,1,4.7-10.94c14.25-37,50.38-64.9,79.63-82.31a20.37,20.37,0,0,0,3.87,4.13l12.89,10.37-60.08,74.4a20.48,20.48,0,0,0,31.87,25.74l60.14-74.46L927.13,741l-29.47,37.91A20.48,20.48,0,1,0,930,804.06l29.06-37.37,34.12,27.44a20.49,20.49,0,0,0,25.68-31.93L902.67,668.74c1.91-.79,3-1.2,3-1.2s19-8,44.49-19.78c.47.43,1,.85,1.48,1.25l86,65.55A20.49,20.49,0,1,0,1062.48,682l-70.91-54c8.08-4,16.19-8.18,24-12.36l28.31,21.23A20.49,20.49,0,0,0,1068.5,604l-14.44-10.83C1065.86,585.44,1074.78,578.22,1078.75,572.28Z"/><path d="M297.68,1280.86a97.43,97.43,0,1,1-.89-138.67,22,22,0,0,0,30.78-31.56,140.73,140.73,0,0,0-98.79-40.19c-78,0-141.52,63.49-141.52,141.52s63.48,141.53,141.52,141.53A140.6,140.6,0,0,0,328.85,1312a22,22,0,1,0-31.17-31.18Z"/><path d="M498.6,1070.44c-78,0-141.52,63.49-141.52,141.52s63.48,141.53,141.52,141.53S640.12,1290,640.12,1212,576.63,1070.44,498.6,1070.44Zm0,239A97.44,97.44,0,1,1,596,1212,97.55,97.55,0,0,1,498.6,1309.4Z"/><path d="M1167.83,1070.44a22,22,0,0,0-22,22v240.72a22,22,0,0,0,44.09,0V1092.49A22,22,0,0,0,1167.83,1070.44Z"/><path d="M1076.79,1070.44a22,22,0,0,0-22,22v20.41a141.1,141.1,0,0,0-101-42.46c-78,0-141.52,63.49-141.52,141.52s63.49,141.53,141.52,141.53a141.1,141.1,0,0,0,101-42.46v22.18a22,22,0,0,0,44.09,0V1092.49A22,22,0,0,0,1076.79,1070.44Zm-123,239a97.44,97.44,0,1,1,97.44-97.44A97.55,97.55,0,0,1,953.78,1309.4Z"/><path d="M1262,906a22,22,0,0,0-22,22.05v405.12a22,22,0,0,0,44.09,0V928.09A22,22,0,0,0,1262,906Z"/><circle cx="1167.83" cy="1013.57" r="22.48"/><path d="M760,1070.44a90.25,90.25,0,0,0-48.28,13.93,22.06,22.06,0,0,0-21.82-13.89c-11.75.69-20.72,10.88-20.72,22.66v239.34c0,12.13,9.49,22.54,21.63,22.77a22.05,22.05,0,0,0,22.46-22V1162.32c0-25.47,19.93-47,45.39-47.77a46.39,46.39,0,0,1,19.84,3.81,22.26,22.26,0,0,0,26.41-6.2l.1-.13a21.94,21.94,0,0,0-8.12-33.74A90.16,90.16,0,0,0,760,1070.44Z"/></svg>