<?xml version="1.0" encoding="utf-8"?>
<!-- Generator: Adobe Illustrator 24.2.0, SVG Export Plug-In . SVG Version: 6.00 Build 0)  -->
<svg version="1.1" id="Calque_1" xmlns="http://www.w3.org/2000/svg" xmlns:xlink="http://www.w3.org/1999/xlink" x="0px" y="0px"
	 viewBox="0 0 958 388" style="enable-background:new 0 0 958 388;" xml:space="preserve">
<style type="text/css">
	.st0{fill:#E57F84;}
</style>
<path class="st0" d="M307.8,244.2c3.6-5.3,2.4-7.9,0.4-9.2c-2.2-1.3-5-0.8-6.6,1.2c-1.6,1.9-3.5,3.5-5.5,5l4.9-29.7
	c0.6-3.9-2-7.5-5.9-8.2s-7.5,2-8.2,5.9L280,251c-5.9,3.1-11.9,5.8-16.6,7.8c-2.1,0.9-4.6-0.1-5.5-2.2c-0.4-1-0.5-2.2,0-3.2l1.5-12.3
	l18.3-16.6c2.7-2.9,2.6-7.4-0.3-10.1c-2.5-2.4-6.5-2.6-9.2-0.5l-6,5.5l1.5-11.9l39.7-27.3c3.3-2.1,4.3-6.5,2.2-9.8
	c-2.1-3.3-6.5-4.3-9.8-2.2c-0.1,0.1-0.3,0.2-0.4,0.3L266,188.7l1.7-13.3c1.3-0.3,2.5-0.9,3.4-1.8l18.4-17.3c2.9-2.6,3.1-7,0.6-10
	c-2.6-3-7.1-3.3-10-0.7c-0.1,0.1-0.1,0.1-0.2,0.2l-9.1,8.5c-0.1-0.4-0.1-0.9-0.3-1.3l2.5-19.7c0.2-1.8-0.5-3.7-2-4.9l0,0
	c-2.3-1.9-5.7-1.5-7.6,0.8c-0.6,0.7-1,1.6-1.2,2.6l-0.5,3.4l-12.6-25.5c-1.7-3.5-6-5-9.5-3.3c-3.5,1.7-5,6-3.3,9.5
	c0,0,0,0.1,0.1,0.1l21,42.3c0.2,0.3,0.4,0.7,0.6,1l-2.1,13.1l-11.8-18.3c-2.1-3.3-6.5-4.2-9.8-2.1s-4.2,6.5-2.1,9.8l0,0l17.9,27.7
	c0.7,1.1,1.7,1.9,2.8,2.5l-3.2,20.6l-11.7-14c-2.5-3-7-3.4-10-0.9c-0.1,0.1-0.1,0.1-0.2,0.2c-2.8,2.6-3.1,7-0.6,10l19.6,23.4
	l-2.3,14.4L234,235c-2.8-2.8-7.3-2.8-10.1,0c-2.7,2.7-2.8,7-0.2,9.8l14.1,14.7c0.3,0.3,0.7,0.6,1.1,0.9
	c-11.5,14.1-40.2,38.7-41.8,37.5c-3.2-2.5,3.1-25,3.9-28.1l0.1-0.2c2-7.6,3.4-15.4,4.2-23.2l0.4-3.7c1.2-0.3,2.3-0.8,3.2-1.6
	l13.9-12.1c2.9-2.6,3.2-7.1,0.6-10.1c-2.6-2.9-7-3.2-9.9-0.7l-5.6,4.9l1.9-18.2c0.6-0.2,1.2-0.6,1.7-0.9l18-13.8
	c3.1-2.3,3.8-6.7,1.6-9.9c-2.3-3.2-6.7-3.9-9.9-1.7c-0.1,0-0.1,0.1-0.2,0.1l-9.1,7l3.2-30.1c0.2-0.1,0.4-0.2,0.6-0.3l20.1-11.3
	c3.4-1.9,4.7-6.1,3-9.5c-1.8-3.5-6-4.9-9.6-3.1c-0.1,0-0.2,0.1-0.3,0.1l-12,6.8l5.3-49.8c0.4-2.8-0.7-5.6-2.8-7.4l0,0
	c-5.1-4.5-8.6-1.4-9.3,5.4l-0.6,5l-11-19.8c-1.9-3.4-6.2-4.7-9.7-2.8c-3.4,1.9-4.7,6.2-2.8,9.7l19.8,35.9c0.2,0.3,0.3,0.6,0.5,0.8
	l-2,16.1l-12.8-19.3c-2.3-3.2-6.7-4-9.9-1.7c-3.1,2.2-3.9,6.4-1.9,9.6l22.1,33.1l-1.8,14.9l-9.5-17c-1.9-3.4-6.3-4.6-9.7-2.7
	s-4.6,6.3-2.7,9.7l18.8,33.5l-8.5,61.8c-0.2,1.1-1.2,1.8-2.3,1.6c-0.6-0.1-1.1-0.5-1.4-1l0,0l-10.4-22c0-0.1,0.1-0.2,0.1-0.3
	l10.6-36.6c1.1-3.8-1.1-7.7-4.8-8.8s-7.7,1.1-8.8,4.8l-6.2,21.4l-4.5-9.6c-0.7-1.5-1.4-3-2.1-4.5l8.8-33c1.1-3.8-1.1-7.7-4.8-8.8
	c-3.8-1.1-7.7,1.1-8.8,4.8c0,0.1-0.1,0.2-0.1,0.3l-3.4,13c-2-7.1-3.5-14.2-4.6-21.5l-0.3-2.2c0.4-0.3,0.7-0.7,1-1.1l18.1-25.3
	c2.3-3.2,1.6-7.6-1.6-9.9c-0.1,0-0.1-0.1-0.2-0.1c-3.3-2.1-7.6-1.2-9.8,1.9l-10.3,14.4l-0.2-1.5c-1.1-7.8,0.7-15.7,5-22.3l10.3-15.8
	l11.9,6.7c1.1,0.6,2.3,0.9,3.5,0.9c3.9,0,7.1-3.2,7.1-7.1c0-2.6-1.4-4.9-3.6-6.2l-11.1-6.2l10.9-16.8c1.8-2.7,1-6.3-1.7-8
	c-0.1,0-0.1-0.1-0.2-0.1l0,0c-2.5-1.4-5.7-0.7-7.3,1.7l-26.9,39.5c-0.5,0.7-1.4,0.8-2,0.4c-0.3-0.2-0.6-0.6-0.6-1l-2.1-15.2
	c-0.4-3-3.1-5.2-6.2-4.8c-3,0.4-5.2,3.1-4.8,6.2l1.2,13.1l-4.9-4.2c-2.9-2.6-7.3-2.4-10,0.4c-2.7,2.9-2.5,7.4,0.3,10.1
	c0.1,0.1,0.1,0.1,0.2,0.2l16.3,14.2l1.1,12L104.9,107c-3.2-2.3-7.6-1.6-9.9,1.6c-2.1,2.9-1.7,6.9,0.9,9.4l33.5,27.4
	c0.5,0.4,1,0.7,1.5,0.9c0.8,5.7,1.8,11.4,2.9,17l-19.2-16c-2.9-2.6-7.4-2.4-10.1,0.5c-2.6,2.9-2.4,7.4,0.5,10.1
	c0.1,0.1,0.3,0.2,0.4,0.3l33.4,28.1c0.3,0.3,0.7,0.5,1.1,0.8c1.3,4.2,2.8,8.4,4.3,12.5c0.2,0.9,0.5,1.8,1,2.5
	c0.4,1.1,0.9,2.2,1.3,3.4l-11.2-1.4c-3.9-0.5-7.4,2.3-7.9,6.2c-0.5,3.9,2.3,7.4,6.2,7.9l0,0l19.7,2.4c0.8,1.7,1.7,3.4,2.5,5l1.9,3.6
	l-9.4,0.1c-3.9,0-7.1,3.2-7.1,7.1c0,3.9,3.2,7.1,7.1,7.1h0.1l14.4-0.1c0.7,0,1.4-0.1,2.1-0.3l14.8,28.5c3.9,8.9-1.8,18.5-8.9,18.5
	c-1,0-4.6-1.6-9.8-4.4c0.1-0.2,0.3-0.4,0.4-0.6l7.7-15.7c1.7-3.5,0.2-7.8-3.3-9.5c-3.5-1.7-7.7-0.2-9.5,3.2l-7.7,15.7
	c0,0,0,0.1,0,0.1c-2.8-1.6-5.7-3.2-8.8-5l9.6-16.5c2.1-3.3,1-7.7-2.3-9.8c-3.3-2.1-7.7-1-9.8,2.3c-0.1,0.1-0.2,0.3-0.2,0.4
	l-9.5,16.5l-4.4-2.6c-1.5-0.9-2.9-1.8-4.2-2.9l14.8-24.9c1.9-3.4,0.7-7.8-2.7-9.7c-3.3-1.8-7.5-0.8-9.5,2.4L108.8,250
	c-2.2-3.8-3.8-7.9-4.6-12.1l-0.9-4.6l20.8-31.4c2.4-3.1,1.9-7.6-1.3-10c-3.1-2.4-7.6-1.9-10,1.3c-0.2,0.3-0.4,0.6-0.6,0.9
	l-12.9,19.5l-3.6-17.9c0.1-0.1,0.2-0.2,0.3-0.3l11.8-13.2c2.5-3,2.2-7.5-0.8-10c-2.9-2.5-7.2-2.2-9.8,0.6l-4.9,5.5l-9.6-48
	c-0.5-3.1-3.4-5.3-6.5-4.8c-3.1,0.5-5.3,3.4-4.8,6.5c0,0.1,0,0.2,0.1,0.3l2.8,15.1l-14.1-6.9c-3.6-1.6-7.8,0-9.4,3.6
	c-1.5,3.4-0.2,7.4,3.1,9.2l21.7,10.7c0.6,0.3,1.2,0.5,1.9,0.6l3.2,17L43.9,162c-3.5-1.8-7.8-0.5-9.7,3c-1.8,3.5-0.5,7.8,3,9.7
	l46.6,24.6l0,0l8.4,44.9c0.1,0.5-0.3,1-0.9,1.1c-0.2,0-0.4,0-0.6-0.1l-8.3-5l-2.8-27c-0.4-3.9-3.9-6.7-7.8-6.3
	c-3.9,0.4-6.7,3.9-6.3,7.8l1.7,16.4l-6-3.6c0-0.5,0-1-0.1-1.5l-6-34.2c-0.8-3.9-4.5-6.4-8.3-5.6c-3.8,0.7-6.3,4.3-5.7,8.1l4.2,23.4
	l-3.5-2.1c-2.4-1.5-5.6-0.7-7.1,1.7c-0.8,1.3-1,2.8-0.5,4.3c0,0.1,0,0.1,0.1,0.2c0.5,1.3,4.4,4.4,10.7,8.7l-8.5,4.1
	c-3.5,1.7-5,6-3.2,9.5c1.7,3.5,6,4.9,9.5,3.2l16.1-7.9c10.1,6.4,22.3,13.7,34.8,21.1c2.1,1.2,2.8,3.9,1.6,6
	c-0.5,0.9-1.3,1.6-2.3,1.9l-13.5,5l-12-20.4c-2.1-3.3-6.5-4.3-9.8-2.3c-3.2,2-4.3,6.1-2.5,9.4l10.7,18.3l-6.4,2.4L48,263.1
	c-2.1-3.3-6.5-4.2-9.8-2.1c-0.1,0-0.1,0.1-0.2,0.1c-3.2,2.2-4,6.6-1.8,9.8l9.6,15l-6,2.2c-2.4,0.8-3.8,3.3-3.3,5.8
	c0.5,2.7,3.1,4.5,5.9,4c0.2,0,0.4-0.1,0.7-0.2l5.5-1.8l-1,15.9c-0.2,3.9,2.7,7.3,6.7,7.5c0,0,0,0,0,0h0.4c3.8,0,6.9-2.9,7.1-6.7
	l1.3-21.5l16.1-5.3l-2.1,34.8c-0.2,3.9,2.7,7.3,6.7,7.5c0,0,0,0,0,0H84c3.8,0,6.9-2.9,7.1-6.7l2.5-40.4l9.7-3.2
	c8-2.6,16.8-1.7,24.2,2.5c-0.1,0.1-0.2,0.2-0.2,0.4L105,318.1c-2.1,3.3-1.1,7.7,2.2,9.8c3.3,2.1,7.7,1.1,9.8-2.2
	c0.1-0.1,0.2-0.3,0.2-0.4l9.6-16.1l13.7,16.6c2.7,2.9,7.2,3.1,10.1,0.4c2.6-2.4,3-6.5,0.9-9.4l-17-20.6l4.9-8.3
	c0.1-0.2,0.2-0.4,0.3-0.5c8.5,4.9,15,8.6,18.3,10.5c6,3.4,10.2,9.4,11.4,16.2c1.6,8.5,9,14.6,17.6,14.5h0.2
	c7.4-0.1,13.9-4.7,16.5-11.7c0.5-1.3,1-2.6,1.6-3.8c5-12.9,17.5-22.5,27.7-28.6c0.4,0.5,0.8,1,1.3,1.4l4.5,3.6L218,315.5
	c-2.7,2.8-2.6,7.3,0.2,10.1c2.8,2.7,7.3,2.6,10.1-0.2c0.3-0.3,0.5-0.6,0.7-0.9l20.9-25.9l5.2,4.2L244.9,316c-2.5,3.1-2,7.5,1.1,10
	c3.1,2.5,7.5,2,10-1.1c0-0.1,0.1-0.1,0.1-0.2l10.1-13l11.9,9.5c3.1,2.4,7.6,1.8,10-1.4c2.3-3,1.8-7.3-1.1-9.7l-40.4-32.5l1-0.4
	c0,0,6.6-2.8,15.5-6.9c0.2,0.1,0.3,0.3,0.5,0.4l29.9,22.8c3.1,2.4,7.6,1.8,10-1.4s1.8-7.6-1.4-10l-24.6-18.8
	c2.8-1.4,5.6-2.8,8.4-4.3l9.8,7.4c3.1,2.4,7.6,1.7,10-1.4c2.4-3.1,1.7-7.6-1.4-10l0,0l-5-3.8C303.4,248.8,306.5,246.2,307.8,244.2z"
	/>
<path d="M461.8,239.9c-16.7,16.7-43.7,16.7-60.4,0s-16.7-43.7,0-60.4c16.5-16.5,43.3-16.7,60-0.4c3.8,3.7,9.9,3.6,13.7-0.2
	c3.7-3.8,3.6-9.9-0.2-13.7c-24.5-23.9-63.8-23.3-87.7,1.2s-23.3,63.8,1.2,87.7c24.3,23.6,63.1,23.4,87-0.6c3.7-3.9,3.5-10-0.4-13.7
	C471.4,236.3,465.6,236.3,461.8,239.9L461.8,239.9z"/>
<path d="M549.9,147.6c-34.2,0-62,27.8-62,62s27.8,62,62,62s62-27.8,62-62C611.9,175.4,584.2,147.7,549.9,147.6z M549.9,252.4
	c-23.6,0-42.7-19.1-42.7-42.7s19.1-42.7,42.7-42.7s42.7,19.1,42.7,42.7c0,0,0,0,0,0C592.6,233.2,573.5,252.4,549.9,252.4z"/>
<path d="M843.3,147.6c-5.3,0-9.7,4.3-9.7,9.7c0,0,0,0,0,0v105.5c-0.2,5.3,4,9.8,9.4,10c5.3,0.2,9.8-4,10-9.4c0-0.2,0-0.4,0-0.6
	V157.3C853,151.9,848.7,147.6,843.3,147.6C843.4,147.6,843.4,147.6,843.3,147.6z"/>
<path d="M803.4,147.6c-5.3,0-9.7,4.3-9.7,9.7v8.9c-24-24.4-63.2-24.8-87.7-0.8c-24.4,24-24.8,63.2-0.8,87.7s63.2,24.8,87.7,0.8
	c0.3-0.3,0.5-0.5,0.8-0.8v9.7c-0.2,5.3,4,9.8,9.4,10c5.3,0.2,9.8-4,10-9.4c0-0.2,0-0.4,0-0.6V157.3
	C813.1,151.9,808.8,147.6,803.4,147.6C803.4,147.6,803.4,147.6,803.4,147.6z M749.5,252.4c-23.6,0-42.7-19.1-42.7-42.7
	s19.1-42.7,42.7-42.7s42.7,19.1,42.7,42.7c0,0,0,0,0,0C792.2,233.2,773.1,252.4,749.5,252.4z"/>
<path d="M884.6,75.5c-5.3,0-9.7,4.3-9.7,9.7c0,0,0,0,0,0v177.6c-0.2,5.3,4,9.8,9.4,10c5.3,0.2,9.8-4,10-9.4c0-0.2,0-0.4,0-0.6V85.2
	C894.3,79.9,890,75.5,884.6,75.5C884.6,75.5,884.6,75.5,884.6,75.5z"/>
<circle cx="843.3" cy="122.7" r="9.9"/>
<path d="M664.6,147.6c-7.5,0-14.8,2.1-21.2,6.1c-1.5-3.9-5.4-6.3-9.6-6.1c-5.2,0.4-9.2,4.7-9.1,9.9v104.9c-0.1,5.4,4.1,9.8,9.5,10
	c5.3,0.1,9.7-4.1,9.8-9.5c0-0.1,0-0.1,0-0.2v-74.9c0-11.2,8.7-20.6,19.9-20.9c3-0.1,6,0.5,8.7,1.7c4,1.8,8.8,0.7,11.6-2.7v-0.1
	c3.3-4.1,2.7-10.2-1.5-13.5c-0.6-0.5-1.3-0.9-2.1-1.3C675.6,148.8,670.1,147.6,664.6,147.6z"/>
</svg>
