<svg id="_Layer_" data-name="&lt;Layer&gt;" xmlns="http://www.w3.org/2000/svg" viewBox="0 0 2593.71 1168.62"><defs><style>.cls-1{fill:#fff;}.cls-2{fill:#163560;}.cls-3{fill:#ed975d;}.cls-4{fill:#aa414b;}.cls-5{fill:#599dad;}.cls-6{fill:#4297a0;}.cls-7{fill:#5aa9ad;}.cls-8{fill:#ffb27d;}.cls-9{fill:#e57f84;}.cls-10{fill:#4a75cb;}.cls-11{fill:#3c6e82;}.cls-12{fill:#2e3552;}.cls-13,.cls-26{fill:#82b378;}.cls-14{fill:#a8d29f;}.cls-15{fill:#f1a34f;}.cls-16{fill:#ffb973;}.cls-17{fill:#d86713;}.cls-18{fill:#d39e7a;}.cls-19{fill:#e0b594;}.cls-20{fill:#2b478b;}.cls-21{fill:#233862;}.cls-22{fill:#2f5061;}.cls-23{fill:#ddebfd;}.cls-24{fill:#739af0;}.cls-25{fill:#a8c3f7;}.cls-26{opacity:0.5;}.cls-27{fill:#ffb93e;}.cls-28{fill:#ffa412;}.cls-29{fill:#e2810e;}.cls-30{fill:none;}</style></defs><path class="cls-1" d="M1787.21,1087c-140.56,129.26-315.42,129-493.3,57.34h0c-104.1-41.92-214.21-114.67-274.06-208.43-81-125.09-52.72-232.7,9.71-367.28,82.85-178.74,217-284.7,414.33-262.84,253.26,28,413.15,212.24,456.9,456.89C1922.82,885.92,1876.33,1005.06,1787.21,1087Z" transform="translate(-203.04 -296.66)"/><path class="cls-2" d="M2129.43,1403.7s-3.34,53.83-13.75,54.6c-1.39.1-52.82.1-52.82.1l-65.66-.38s.43-15.82,19.62-19.16,51.32-16.84,62.94-42.2C2092,1370,2129.43,1403.7,2129.43,1403.7Z" transform="translate(-203.04 -296.66)"/><path class="cls-3" d="M2164.47,767.1s-31,17.63-39.67,17.63-42.74-6.59-52.24-1.74-26.68,24.38-29.9,30.75c-5.8,11.47,23.34,6.4,37.12-3.36a8.63,8.63,0,0,1,6.88-1.42c7.13,1.55,22,4.25,29.11,1.6,9.62-3.57,60.31-7.52,60.31-7.52Z" transform="translate(-203.04 -296.66)"/><path class="cls-4" d="M2400.3,527.05S2368.17,755.42,2315,775.88c-26.25,10.09-142.28,33-176.6,35.27,0,0-8.41-6.82-6.36-34.58,0,0,121.56-44.63,138.83-68.9,25.7-36.12-15.95-147.57,16.3-181.5S2373.7,477.67,2400.3,527.05Z" transform="translate(-203.04 -296.66)"/><path class="cls-5" d="M2389.47,1008.2a399.32,399.32,0,0,1-31.39,44.91c-34.53,43.6-72.12,79.54-78.67,113.52a154,154,0,0,1-6.08,21.75c-2.73,7.79-6.11,16-10,24.43-14.66,31.83-36.57,67.5-58.46,99.93-37.82,56-68.78,93.66-68.78,93.66s-9.92,7.74-38.29,7.72c-7.9,0-34.48-4.32-34.48-4.32,2.61-6.54,34-81,72.05-175.53l47.74-118.62q3.18-7.89,6.32-15.69c4.85-12,9.62-23.91,14.28-35.47,35.73-88.81,64.2-159.52,64.2-159.52s142.83-54.11,157.67-19.05C2437.8,914.83,2427.83,943.15,2389.47,1008.2Z" transform="translate(-203.04 -296.66)"/><path class="cls-2" d="M2280.48,1249.92s45.37,29.16,41,38.63c-.59,1.26-25.66,46.16-25.66,46.16l-32.34,57.15s-13.61-8.09-7.17-26.48,10.32-53-6.16-75.53C2232.78,1266.17,2280.48,1249.92,2280.48,1249.92Z" transform="translate(-203.04 -296.66)"/><path class="cls-6" d="M2254.7,1305.82s31.93-29.66,36.93-48c0,0-116.84-140-142.18-171.37-1.17-1.44-.87-3,.67-4.76,19.13-21.57,231.72-65.43,259.51-108.66a133.81,133.81,0,0,0,17.95-41.39c6.3-26.38,1.32-44.6,1.32-44.6l-212.32-6.14S2039.81,991,2019.79,1066,2254.7,1305.82,2254.7,1305.82Z" transform="translate(-203.04 -296.66)"/><path class="cls-7" d="M2150.12,1081.68c19.13-21.57,231.72-65.43,259.51-108.66a133.81,133.81,0,0,0,17.95-41.39V904.76l-90.24-14.19S2311.75,969.31,2236,998.84C2165,1026.49,2151.53,1075.57,2150.12,1081.68Z" transform="translate(-203.04 -296.66)"/><path class="cls-8" d="M2274.68,512.65c43,11.11,114.16-28.69,114.16-28.69s-27.65-18.58-37.9-59.4c-.52-2.06-1-4.16-1.4-6.33-4.5-1-13-2.76-22.06-4.67L2294.67,443s.75,12.2,4.85,33.18q1.07,5.49,2.47,11.77A101.22,101.22,0,0,0,2274.68,512.65Z" transform="translate(-203.04 -296.66)"/><path class="cls-9" d="M2434.31,690.69c-6.15,82.75,2,208.6-5,230.39-6,18.8-74.66,7.63-102.05,1.35-10.14-2.33-22.42-5.64-35.11-9.57-35.38-11-73.93-26.6-78.07-38.21a12.38,12.38,0,0,1-.38-1.34,10.67,10.67,0,0,1,.08-4.87c1.38-5.91,6.69-12.32,7.31-27,.7-16.36.6-35.63,1.21-56.36,0-2.33.07-4.87.32-7.2v-.85l0-1.32c.6-23.11,1.81-47.41,3.21-71.51.89-15.13,1.92-30.12,3.11-44.48,3.08-37.06,7.24-70,12.74-90.87,9-34,28.83-56.12,46.88-72.36l13.06-11.2c14.57,3.18,31.79,1.07,47.37-6.31,16.87-8,22.69-13.74,25.63-11.58C2413.57,497.46,2441.58,589.53,2434.31,690.69Z" transform="translate(-203.04 -296.66)"/><path class="cls-4" d="M2292.12,912.86c-35.38-11-73.93-26.6-78.07-38.21a12.38,12.38,0,0,1-.38-1.34c0-1.62,0-3.24.08-4.87,1.38-5.91,6.69-12.32,7.31-27,.7-16.36.6-35.63,1.21-56.36,0-2.33.07-4.87.32-7.2v-.85l0-1.32,143-182.23S2461.82,793.71,2292.12,912.86Z" transform="translate(-203.04 -296.66)"/><path class="cls-3" d="M2294.67,443s.75,12.2,4.85,33.18c32-10.36,46.57-39.3,51.42-51.57-.52-2.06-1-4.16-1.4-6.33-4.5-1-13-2.76-22.06-4.67Z" transform="translate(-203.04 -296.66)"/><path class="cls-8" d="M2290.36,461.44s69.87-11.66,61.93-55.05-4.25-74.13-49.19-68.52-50.56,23.75-51.44,38.88S2272,463.36,2290.36,461.44Z" transform="translate(-203.04 -296.66)"/><polygon class="cls-10" points="1983.9 523.64 1809.48 527.37 1759.9 374.76 1753.74 376.76 1806.16 538.09 1984.12 534.29 1983.9 523.64"/><path class="cls-8" d="M2183.6,839.45S2126.41,854.53,2105,853s-39.28-11.78-42-17.11-8.36-14.76,6.24-13,34.52,4.84,35.14,2-11.9-2.54-11.9-2.54-3.78-5.5,1-5.7,18.67-4,23.83-1.39,9.93,12.11,13.7,11.71,47.85-19.85,47.85-19.85Z" transform="translate(-203.04 -296.66)"/><path class="cls-9" d="M2386.12,536.42s-6.76,230.53-57.39,256.72c-25,12.93-137.77,48.46-171.63,54.53,0,0-9.11-5.85-10.14-33.67,0,0,115.9-57.76,130.39-83.79,21.57-38.73-32.12-144.91-3.81-182.18S2354.23,490.28,2386.12,536.42Z" transform="translate(-203.04 -296.66)"/><path class="cls-11" d="M2350.94,424.56s.8-14.89-8.38-23.42c0,0,3.2-14.93-2.71-17.39s-7.14,10.09-9.84,8.12-14.77-11.32-19.93-25.1-52.46,2.91-58,5.39-23.23-6.62-26.67-14c0,0,9.84-7.87,14.27-13.78s35.43-45.77,78.74-34.45,49.22,32,46.76,49.71S2368.68,418.61,2350.94,424.56Z" transform="translate(-203.04 -296.66)"/><rect class="cls-12" y="1161.74" width="2593.71" height="6.88" rx="2.94"/><path class="cls-13" d="M1028.47,1284.39s-27.93-32.58-1.72-53.27c0,0,19.14-11.59,34.75-10.65,0,0-22.12,37.08-15,40.77s21.66-43.1,21.66-43.1,43.56-4.22,57.57,2.52c0,0-37.23,30.47-29.39,32.28s48.06-28.09,48.06-28.09,40.54,6.9,38.38,31.63-16.13,32.36-22.27,31.71-42-14.37-42.84-9.34,20.84,21.47,36,22.24c0,0-28.58,31.52-47.58,22.42s-20.62-23.51-32.46-28.92-22-5.4-17.06.12,26.32,10.88,33.09,22.85,12.85,20.06-6.8,17.1-51.6-17.33-53-33.8Z" transform="translate(-203.04 -296.66)"/><path class="cls-13" d="M1162.9,1257.14s-110.11-4.24-134.43,27.25c0,0-5.38,16.11-21.92,30.77l-2.58,7s19.08-20.12,25.91-21.34C1029.88,1300.86,1019.2,1261.84,1162.9,1257.14Z" transform="translate(-203.04 -296.66)"/><path class="cls-13" d="M1006.55,1315.16s-23.64,17.48-25.28,48.72l4.29.38s7.55-32.29,21.19-44.92S1006.55,1315.16,1006.55,1315.16Z" transform="translate(-203.04 -296.66)"/><path class="cls-14" d="M930.83,1243.42s44.43-24.88,23.69-58.64c0,0-16.58-20.73-34.35-26.07,0,0,9.48,50.35,0,51.54s-6.52-56.87-6.52-56.87-46.79-22.5-65.15-20.73c0,0,29,49.17,19.54,48s-42-50.94-42-50.94-48-8.88-55.68,19.55,4.74,42.64,11.85,44.42,52.71,1.19,51.53,7.11-32,15.4-49.16,10.07c0,0,19,46.79,43.83,44.42s32.58-17.77,48-19,26.65,3,18.95,7.11-33.76,1.36-46.2,11.93-22.51,17.09.59,21.83,64.57,1.78,72.86-16Z" transform="translate(-203.04 -296.66)"/><path class="cls-13" d="M792.23,1158.12s124.38,40.28,138.6,85.3c0,0-.59,20.14,11.85,43.24v8.88s-13-30.21-20.14-34.35C922.54,1261.19,950.38,1222.09,792.23,1158.12Z" transform="translate(-203.04 -296.66)"/><path class="cls-13" d="M942.68,1286.66s19.18,29.13,8.24,64.59l-4.93-1.33s4.79-39.05-5.25-58.7S942.68,1286.66,942.68,1286.66Z" transform="translate(-203.04 -296.66)"/><path class="cls-14" d="M1001.51,1209.11s-58.56-32.8-31.24-77.3c0,0,21.87-27.33,45.29-34.36,0,0-12.49,66.37,0,67.93s8.59-75,8.59-75,61.68-29.67,85.89-27.33c0,0-38.26,64.81-25.77,63.24s55.44-67.15,55.44-67.15,63.24-11.71,73.39,25.77-6.24,56.22-15.61,58.56-69.49,1.56-67.93,9.37,42.16,20.3,64.8,13.27c0,0-25,61.69-57.78,58.56s-42.94-23.42-63.24-25-35.14,3.9-25,9.37,44.51,1.79,60.91,15.73,29.67,22.53-.78,28.77-85.11,2.35-96-21.08Z" transform="translate(-203.04 -296.66)"/><path class="cls-13" d="M1184.21,1096.67s-164,53.1-182.7,112.44c0,0,.78,26.55-15.62,57v11.71s17.18-39.82,26.55-45.29C1012.44,1232.53,975.74,1181,1184.21,1096.67Z" transform="translate(-203.04 -296.66)"/><path class="cls-13" d="M985.89,1266.11S960.6,1304.5,975,1351.25l6.51-1.75s-6.32-51.48,6.91-77.38S985.89,1266.11,985.89,1266.11Z" transform="translate(-203.04 -296.66)"/><path class="cls-15" d="M999.53,1452.61a114.71,114.71,0,0,0,114.71-114.71H884.82A114.71,114.71,0,0,0,999.53,1452.61Z" transform="translate(-203.04 -296.66)"/><path class="cls-16" d="M1027.76,1451.73a114.77,114.77,0,0,1-129-113.83h28.5A114.73,114.73,0,0,0,1027.76,1451.73Z" transform="translate(-203.04 -296.66)"/><path class="cls-15" d="M1115.83,1458.45H883.24a14.16,14.16,0,0,1,14.15-14.16h204.28a14.16,14.16,0,0,1,14.16,14.16Z" transform="translate(-203.04 -296.66)"/><rect class="cls-17" x="678.02" y="1041.24" width="235.8" height="3.52"/><path class="cls-18" d="M2562.27,1452.2c-27.28-27.87-75.35-47.06-130.87-49.31v-92.16h85.78c2.13,0,4-1.86,5.23-4.72a18.81,18.81,0,0,0,1.34-7.19v-4.15c0-6.55-3-11.91-6.57-11.91H2431.4v-219.5a11.05,11.05,0,0,0-11-11h0a11.06,11.06,0,0,0-11,11v219.5h-85.78c-3.61,0-6.57,5.36-6.57,11.91v4.15a18.68,18.68,0,0,0,1.43,7.39c1.2,2.75,3.06,4.52,5.14,4.52h85.78v92.16c-55.52,2.25-103.59,21.44-130.87,49.31-2,2-3.85,4.09-5.6,6.2h295C2566.13,1456.29,2564.25,1454.23,2562.27,1452.2Z" transform="translate(-203.04 -296.66)"/><path class="cls-19" d="M2431.4,1403.29c-38.74,3.59-72,22.29-91.31,48.91-1.47,2-2.85,4.09-4.15,6.2h-27.29c1.3-2.11,2.67-4.17,4.14-6.2,21.51-29.7,60.47-49.54,105-49.54C2422.36,1402.66,2426.92,1402.88,2431.4,1403.29Z" transform="translate(-203.04 -296.66)"/><rect class="cls-4" x="2054.23" y="681.78" width="318.59" height="81.84" rx="13.23"/><path class="cls-8" d="M945.54,557.24c-4.9,13.17-13.39,28.46-22.3,32.26-10.1,4.31-14.32,10.39-14.32,10.39l-8.15-4.73L891,589.5s.23-1.09.71-2.85,1.2-4.2,2.19-6.9a9.43,9.43,0,0,0,1.16-8.67c-1.83-4.82-1.47-12.28,1.66-16.82s6.14-15.73,8-15.4c4.56.78-2.24,16.16-.29,19,1.76,2.58,4,1.69,4.38,1.5l.07,0c12.79-5.62,28.29-35.92,35.15-31.83C946.64,529,947.63,551.63,945.54,557.24Z" transform="translate(-203.04 -296.66)"/><path class="cls-20" d="M901.32,575.58l16,11.25a2.51,2.51,0,0,0,3.5-.61l41-58.36a2.53,2.53,0,0,0-.61-3.51l-16-11.25a2.52,2.52,0,0,0-3.5.61l-41,58.37A2.51,2.51,0,0,0,901.32,575.58Z" transform="translate(-203.04 -296.66)"/><path class="cls-21" d="M916,585.88l9.39,6.6A1.91,1.91,0,0,0,928,592l41.71-59.35a1.91,1.91,0,0,0-.46-2.66l-9.39-6.6a1.93,1.93,0,0,0-2.67.47l-41.71,59.35A1.92,1.92,0,0,0,916,585.88Z" transform="translate(-203.04 -296.66)"/><path class="cls-11" d="M671.61,491.83s81.47,142.11,111,168.26L891,579.28s15.72,4.83,22.61,20.61c0,0-65.81,134.1-130.62,139.78S627.27,579,627.27,579Z" transform="translate(-203.04 -296.66)"/><path class="cls-9" d="M487.22,1458.4H440.15c-5.93-3.22-11.21-10.59-12.88-21.57-2.3-15.17-19.3-23.44-23-35.85s15.17-29.85,15.17-29.85l3.15-4.07,3.28-4.21,31.25,7.36s.77,7.44,1.24,16.92c.34,6.84.52,14.74.14,21.67-.92,16.54,4.62,34.36,19.32,37.58C488.71,1448.75,488.22,1455.2,487.22,1458.4Z" transform="translate(-203.04 -296.66)"/><path class="cls-9" d="M760.44,1458.4H652.78c-5.18-6.32-3.27-29.64-2.49-37.25.16-1.53.27-2.43.27-2.43s36.77-29.4,41.82-6.89c.15.71.34,1.4.54,2.08,6.36,21.06,34.9,30.63,51.38,33.3C755,1449,759,1454.52,760.44,1458.4Z" transform="translate(-203.04 -296.66)"/><path class="cls-9" d="M739.92,857.45s-5.58,69.65-12.14,153.37c-8.92,113.73-19.64,253.43-20.7,279.89-1.83,46-9.2,119.47-9.2,119.47s-17.45,17.46-52.37,10.1c0,0-31.13-104.94-40-216-.14-1.82-.27-3.66-.41-5.49-8.27-113-21.13-351-21.13-351Z" transform="translate(-203.04 -296.66)"/><path class="cls-9" d="M739.92,857.45s-5.58,69.65-12.14,153.37l-122.29,193.5c-.14-1.82-.27-3.66-.41-5.49-8.27-113-21.13-351-21.13-351Z" transform="translate(-203.04 -296.66)"/><path class="cls-9" d="M714.43,865.72S613.81,1118,547.65,1236.5s-86.84,151.62-86.84,151.62-37.9-15.16-41.35-25.5c0,0,25.3-228.84,69.61-284.63,25-31.52,54.44-126.12,55.82-159.2s9-98.55,9-98.55Z" transform="translate(-203.04 -296.66)"/><path class="cls-8" d="M689.38,498C650.06,510.41,582,476.93,582,476.93s36.25-27.21,34.35-83.78l30.41,24.5,20.65,16.64a248.06,248.06,0,0,1-2.35,27c-.59,4.52-1.33,9.57-2.27,15.08A93.94,93.94,0,0,1,689.38,498Z" transform="translate(-203.04 -296.66)"/><path class="cls-3" d="M667.44,434.29a248.06,248.06,0,0,1-2.35,27c-22.88-3.92-48.83-40.91-48.83-40.91,11.65-3.36,21.85-4,30.53-2.73Z" transform="translate(-203.04 -296.66)"/><path class="cls-8" d="M679.46,433.36s-64.94,10.79-71-29.76S589.83,337.13,631,328.53s51.61,5.65,56.94,18.69S696.2,429.5,679.46,433.36Z" transform="translate(-203.04 -296.66)"/><path class="cls-22" d="M744.26,863.25a6.31,6.31,0,0,1-4.13,1.58c-14.76-.2-57.82,8-94.25,4.26-30.72-3-57.9-12.05-87.1-25.14-3.87-1.74-12.8-6.5-12.6-10.83.13-4.74.61-11.63,1.2-20.29,2.06-30.14,5.66-82,2.15-141.76-.63-11.13-1-22.18-1-33.05-.3-81,15.77-152.32,48.06-176.44,2.76-2,19.69,6.3,35.25,14,14.37,7.09,28.75,7.87,42.33,5.12l13.58,12c16.54,15.36,34.66,36.23,42.53,67.93,6.7,27,10.63,75.61,12.8,126,1,22.84,1.78,45.88,2,67.74v.78c.19,2.17.19,4.53.19,6.7C746,818,745.25,862.46,744.26,863.25Z" transform="translate(-203.04 -296.66)"/><path class="cls-11" d="M547.38,812.83c2.06-30.14,5.66-82,2.15-141.76-.63-11.13-1-22.18-1-33.05C562,605.39,573,581.73,573,581.73h33.9S631.74,751.51,547.38,812.83Z" transform="translate(-203.04 -296.66)"/><path class="cls-22" d="M537,894.76l-144.6-20.61a34.67,34.67,0,0,0-39.1,29.34l-8.93,62.67a34.67,34.67,0,0,0,29.34,39.09l144.6,20.6a34.67,34.67,0,0,0,39.1-29.34l8.93-62.66A34.67,34.67,0,0,0,537,894.76Z" transform="translate(-203.04 -296.66)"/><path class="cls-22" d="M545.15,913.44h0a34.79,34.79,0,0,0-23.95-20.92h0a32.86,32.86,0,0,0-3.34-.65L489,887.75,491,874.23a11.45,11.45,0,0,0-9.72-12.94l-7.51-1.08-30.24-4.31-5.45-.77a11.45,11.45,0,0,0-12.94,9.71l-1.92,13.53-49.7-7.09a34.81,34.81,0,0,0-39.25,29.45l-9,63.4a34.78,34.78,0,0,0,29.45,39.23L499,1023.93a33.48,33.48,0,0,0,7.53.24h0a33.82,33.82,0,0,0,11.26-2.84,34.77,34.77,0,0,0,20.43-26.85l9-63.39A34.36,34.36,0,0,0,545.15,913.44ZM432.2,865.86a4.31,4.31,0,0,1,4.84-3.63l6.42.91,23.79,3.4,13,1.85a4.27,4.27,0,0,1,3.63,4.83l-1.92,13.52-51.65-7.37Z" transform="translate(-203.04 -296.66)"/><path class="cls-8" d="M475.62,835.2c0-.78.09-1.57.15-2.38.3-4,7.89-14.16,7.89-14.16l-19-9.88-7.53,12.46c-11.39,9.06-11.6,9.22-9.52,26.56,1.8,15-8,15.22-7.8,26s14.07,5.46,14.07,5.46c21.44-10.07,23.21-15.14,22.55-25.34,2,2.88,4.31,4.56,6.25,3.31,1.7-1.11-1.7-5.51-3.18-15.69C479.24,840,477.44,837.43,475.62,835.2Z" transform="translate(-203.04 -296.66)"/><path class="cls-22" d="M464.35,826.41a111.31,111.31,0,0,0,25.45,1.42s36.24-112,40.91-122.2S638.37,574.34,638.37,574.34L595.46,467S484.06,653.05,472.75,679.2c-18.69,43.2-25.18,140.08-25.18,140.08A46.68,46.68,0,0,0,464.35,826.41Z" transform="translate(-203.04 -296.66)"/><path class="cls-22" d="M608.37,399.69S615,398.58,614,389.4s-1.07-21.18,6.4-18.94,7.83,8.21,10.9,4.72S634.38,357,656.59,356s31.23,6.71,41.56,2.17S709,338,709,338s-2.93,5.58-7.37,7.35c0,0,17.23-23.56-2.72-39.72s-40.29-5.58-51.83-4.88c-25.44,1.54-41.87,3.06-50.18,19.78S592,383.61,608.37,399.69Z" transform="translate(-203.04 -296.66)"/><path class="cls-8" d="M1528.16,840.32s-65.72-13.23-76.7-12.18-49,18.13-49.44,21.26,1.46,5.62,8.12,5.9,28.46-3.11,27.14-.43-64,16.73-64.37,29.42,34.78,35.37,64,36.18,85.67-34.57,90.57-35.13C1569.06,880.61,1528.16,840.32,1528.16,840.32Z" transform="translate(-203.04 -296.66)"/><path class="cls-4" d="M1887.12,694.26c-25.67,32-47.07,56.76-58.35,65.77-9,7.16-20.31,14.49-33.31,21.83-93.7,52.87-273.9,106.53-273.9,106.53l-.36-.26a78.71,78.71,0,0,1-22.5-27c-6.86-13.88-5.45-22.5-3.41-27a12,12,0,0,1,2.71-4s216-138,233.22-152.38c9.8-8.16,45.27-90.73,74.16-160.74q6.06,8.79,11.74,17.84C1847.43,582.93,1870.82,636.66,1887.12,694.26Z" transform="translate(-203.04 -296.66)"/><path class="cls-4" d="M1888.6,938.66q-2,5.79-4.28,11.51a359.48,359.48,0,0,1-25.23,51.69h0q-8.7,14.76-18.78,28.71a384.6,384.6,0,0,1-51.53,58c.1-1.45.21-2.89.31-4.33.16-2.22.32-4.44.47-6.63q.53-7.29,1-14.32c.14-1.82.26-3.62.39-5.41.83-11.59,1.61-22.58,2.34-32.89.21-3,.42-5.87.62-8.73l.18-2.53c.13-1.68.24-3.34.35-5s.22-3,.32-4.41l0-.44c.11-1.48.21-2.94.31-4.39q.27-3.66.51-7.15c.1-1.46.2-2.88.31-4.3q.22-3.3.45-6.43c0-.5.07-1,.11-1.51.07-1,.14-2,.21-3,0-.49.07-1,.1-1.45a1.09,1.09,0,0,0,0-.18c.14-1.87.26-3.7.39-5.47a2.64,2.64,0,0,0,0-.28c.09-1.29.18-2.56.27-3.79,0-.42.06-.83.08-1.22q.09-1.07.15-2.1l.12-1.67c.27-3.86.53-7.39.75-10.55,0-.45.06-.9.09-1.33s.07-.89.09-1.33c.06-.83.12-1.64.17-2.41.4-5.59.68-9.66.85-12.05,0-.24,0-.47,0-.69,0-.06,0-.13,0-.2s0-.42,0-.59c.06-.67.08-1,.08-1Z" transform="translate(-203.04 -296.66)"/><path class="cls-4" d="M1888.6,938.66q-2,5.79-4.28,11.51a359.48,359.48,0,0,1-25.23,51.69h0q-8.7,14.76-18.78,28.71a384.6,384.6,0,0,1-51.53,58c.1-1.45.21-2.89.31-4.33.16-2.22.32-4.44.47-6.63q.53-7.29,1-14.32c.14-1.82.26-3.62.39-5.41.83-11.59,1.61-22.58,2.34-32.89.21-3,.42-5.87.62-8.73l.18-2.53c.13-1.68.24-3.34.35-5s.22-3,.32-4.41l0-.44c.11-1.48.21-2.94.31-4.39q.27-3.66.51-7.15c.1-1.46.2-2.88.31-4.3q.22-3.3.45-6.43c0-.5.07-1,.11-1.51.07-1,.14-2,.21-3,0-.49.07-1,.1-1.45a1.09,1.09,0,0,0,0-.18c.14-1.87.26-3.7.39-5.47a2.64,2.64,0,0,0,0-.28c.09-1.29.18-2.56.27-3.79,0-.42.06-.83.08-1.22q.09-1.07.15-2.1l.12-1.67c.27-3.86.53-7.39.75-10.55,0-.45.06-.9.09-1.33s.07-.89.09-1.33c.06-.83.12-1.64.17-2.41.4-5.59.68-9.66.85-12.05,0-.24,0-.47,0-.69,0-.06,0-.13,0-.2s0-.42,0-.59c.06-.67.08-1,.08-1Z" transform="translate(-203.04 -296.66)"/><path class="cls-9" d="M1902.86,762.75a344,344,0,0,1-14.26,175.91q-2,5.79-4.28,11.51a359.48,359.48,0,0,1-25.23,51.69h0q-8.7,14.76-18.78,28.71c-19.26-2.78-34.92-5-44.58-5.3a11.87,11.87,0,0,1-2.42-.33,12.64,12.64,0,0,1-5.72-3.1c-1.91-1.66-.1-90.61,5.76-202.65.17-4.32.34-9.07.9-13.36l0-1.59q.56-11.09,1.17-22.39c.25-4.35.49-8.71.76-13.09,1.81-29.88,4-60.45,6.49-90.93q.36-4.38.7-8.75c3.85-46.91,8.37-93,13.71-134.28,30.31,48.12,53.7,101.85,70,159.45Q1896.6,727.68,1902.86,762.75Z" transform="translate(-203.04 -296.66)"/><path class="cls-22" d="M1096.5,928.27c-1.07-31.37-2.66-68.72-4.77-109.07-.17-4.32-.36-9.07-.9-13.36l-.07-1.59c-.17-3.57-.34-7.17-.53-10.78q-.15-3.06-.32-6.13-.48-9.23-1.06-18.57c-1.81-29.88-4.07-60.45-6.48-90.93-.26-2.92-.49-5.84-.72-8.75-3.56-43.46-7.7-86.23-12.54-125.09v0l-.09-.65c-.6-4.88-1.24-9.72-1.87-14.48-1.26-9.57-2.58-18.88-4-27.85q-2.81,4.59-5.52,9.26-16.07,27.47-30,57.57c-18.93,40.8-35,84.95-48.4,131.43l-.26.89a285.25,285.25,0,0,0-9.17,44.94h0c-.26,2.1-.49,4.21-.7,6.31h0c-6.45,66.86,12.6,129.43,48.78,185.33q1.85,2.89,3.8,5.77c2.55,3.79,5.19,7.57,7.91,11.3q2.86,4,5.87,7.88c.41.55.84,1.1,1.27,1.65a459.07,459.07,0,0,0,46.38,51.23q4.14,3.95,8.38,7.82c.69.64,1.41,1.28,2.11,1.92a13.76,13.76,0,0,0,3.81-2.47C1098.71,1020.78,1098.42,984,1096.5,928.27Z" transform="translate(-203.04 -296.66)"/><path class="cls-11" d="M1096.5,928.27c-50.38-52.79-92.36-117.59-126.62-183.17h0a285.25,285.25,0,0,1,9.17-44.94l.26-.89c13.43-46.48,29.47-90.63,48.4-131.43,30.93,44.2,52.6,84.88,53.94,101.26.23,2.91.46,5.83.72,8.75,2.41,30.48,4.67,61,6.48,90.93q.57,9.35,1.06,18.57.16,3.07.32,6.13c.19,3.61.36,7.21.53,10.78l.07,1.59c.54,4.29.73,9,.9,13.36C1093.84,859.55,1095.43,896.9,1096.5,928.27Z" transform="translate(-203.04 -296.66)"/><path class="cls-3" d="M1325.28,844.26s67,.07,77.59,3.27,44.44,27.5,44.24,30.65-2.54,5.21-9.12,4.16-27.28-8.69-26.52-5.79,59.41,29.08,57.25,41.6-41.09,27.76-69.88,22.77-77.11-50.87-81.81-52.39C1277.2,875.64,1325.28,844.26,1325.28,844.26Z" transform="translate(-203.04 -296.66)"/><path class="cls-22" d="M1337.42,867.15A78.9,78.9,0,0,1,1318,889.07a57,57,0,0,1-5.3,3.74s-129-48.3-222.51-99.34c-30.9-16.87-57.94-34.05-75.15-49.86-7.77-7.15-20.39-23.11-35.77-44.35,13.43-46.48,29.47-90.63,48.4-131.43q13.93-30,30-57.57c3.73,11.12,7.57,22.47,11.43,33.72v0c20.48,59.76,41.48,117,49,124.19,16.23,15.53,222.17,168.08,222.17,168.08s2.66,2.58,3.39,8.13C1344.3,849.43,1343.38,856.92,1337.42,867.15Z" transform="translate(-203.04 -296.66)"/><rect class="cls-23" x="1036.34" y="96.48" width="351.72" height="319.02"/><rect class="cls-24" x="1036.34" y="77.35" width="351.72" height="19.13"/><path class="cls-23" d="M1251.18,379.75a3.83,3.83,0,1,0,3.83,3.83A3.82,3.82,0,0,0,1251.18,379.75Z" transform="translate(-203.04 -296.66)"/><path class="cls-23" d="M1266.17,379.75a3.83,3.83,0,1,0,3.83,3.83A3.82,3.82,0,0,0,1266.17,379.75Z" transform="translate(-203.04 -296.66)"/><path class="cls-23" d="M1281.26,379.75a3.83,3.83,0,1,0,3.83,3.83A3.83,3.83,0,0,0,1281.26,379.75Z" transform="translate(-203.04 -296.66)"/><path class="cls-25" d="M1345,434.71h134.37a6.4,6.4,0,0,0,6.38-6.38h0a6.4,6.4,0,0,0-6.38-6.38H1345a6.4,6.4,0,0,0-6.38,6.38h0A6.4,6.4,0,0,0,1345,434.71Z" transform="translate(-203.04 -296.66)"/><path class="cls-25" d="M1314.39,456.6H1510a6.38,6.38,0,1,0,0-12.75h-195.6a6.38,6.38,0,1,0,0,12.75Z" transform="translate(-203.04 -296.66)"/><path class="cls-25" d="M1297.85,514.22H1533.6a4.68,4.68,0,1,0,0-9.35H1297.85a4.68,4.68,0,1,0,0,9.35Z" transform="translate(-203.04 -296.66)"/><rect class="cls-25" x="1090.13" y="229.78" width="245.11" height="9.35" rx="4.68"/><path class="cls-25" d="M1533.6,548H1297.85a4.68,4.68,0,1,0,0,9.35H1533.6a4.68,4.68,0,1,0,0-9.35Z" transform="translate(-203.04 -296.66)"/><path class="cls-25" d="M1321.52,626.48h-23.67a4.68,4.68,0,1,0,0,9.36h23.67a4.68,4.68,0,1,0,0-9.36Z" transform="translate(-203.04 -296.66)"/><path class="cls-25" d="M1361.07,626.48h-23.68a4.68,4.68,0,0,0,0,9.36h23.68a4.68,4.68,0,0,0,0-9.36Z" transform="translate(-203.04 -296.66)"/><path class="cls-25" d="M1494.05,626.48h-23.67a4.68,4.68,0,0,0,0,9.36h23.67a4.68,4.68,0,1,0,0-9.36Z" transform="translate(-203.04 -296.66)"/><path class="cls-25" d="M1533.6,626.48h-23.67a4.68,4.68,0,0,0,0,9.36h23.67a4.68,4.68,0,1,0,0-9.36Z" transform="translate(-203.04 -296.66)"/><path class="cls-25" d="M1328.08,641.53A24.93,24.93,0,1,0,1353,666.46,25,25,0,0,0,1328.08,641.53Zm0,48.61a23.68,23.68,0,1,1,23.67-23.68A23.7,23.7,0,0,1,1328.08,690.14Z" transform="translate(-203.04 -296.66)"/><path class="cls-25" d="M1328.08,646.37a20.09,20.09,0,1,0,20.09,20.09A20.12,20.12,0,0,0,1328.08,646.37Zm0,38.92a18.84,18.84,0,1,1,18.83-18.83A18.86,18.86,0,0,1,1328.08,685.29Z" transform="translate(-203.04 -296.66)"/><path class="cls-25" d="M1321.25,674.68c-2.68-.22-4.06-1.48-4.12-3.74a5.87,5.87,0,0,1,1.88-4.5c.52,2.6,1.9,4.8,3.42,5.28a2.11,2.11,0,0,0,2.34-.83,14.43,14.43,0,0,0,1.79-3,1.48,1.48,0,0,0,1,.44c.93,0,1.85-.69,2.68-2.13a11.89,11.89,0,0,0,.59-1.24.74.74,0,0,0,.2.16.76.76,0,0,0,.91-.13,8.32,8.32,0,0,0,1.55-2.3,1.11,1.11,0,0,0,.42.48.91.91,0,0,0,1.14-.25.57.57,0,0,0,.16-.73c-.14-.25-.58-.43-1.23-.54h0c.69-1.59,1.17-3.26.92-3.87a.6.6,0,0,0-.62-.39c-.46.05-.79.51-1,1.41a8.63,8.63,0,0,0-.12,2.73l0,0q-.71,0-1.56,0a2,2,0,0,0-.24-.95c-.24-.36-.5-.36-.63-.33-.36.08-.49.51-.54.87,0,.14,0,.3,0,.49a29.2,29.2,0,0,0-5.11.87,16.62,16.62,0,0,0-5.42,2.43c0-.79,0-1.76.58-2.11s1.83.1,2.22.33l.4-.68c-.08,0-1.85-1.06-3-.32-.73.46-1,1.45-.94,2.93,0,.15,0,.29,0,.43a6.83,6.83,0,0,0-2.53,5.44c.07,2.65,1.79,4.25,4.84,4.5a19.22,19.22,0,0,0,7.16-1.12c5.8-1.88,11.19-5.89,12.27-9.53C1339.06,669.37,1327.77,675.22,1321.25,674.68Zm12.93-16.17a6.64,6.64,0,0,1-.18.82A4.68,4.68,0,0,1,1334.18,658.51Zm-2.62,3.84c.46,0,.88,0,1.25,0a7.42,7.42,0,0,1-1.4,2.12s-.11-.07-.23-.44A9.44,9.44,0,0,0,1331.56,662.35Zm-4.21.44c1-.17,1.92-.29,2.79-.36a8.23,8.23,0,0,0,.22,1.59,9.83,9.83,0,0,1-.81,1.83c-.64,1.13-1.36,1.77-2,1.74a.88.88,0,0,1-.69-.47C1327.57,665.46,1327.86,663.78,1327.35,662.79Zm-.77.24c.38.51.29,1.63-.1,2.93A6,6,0,0,1,1326.58,663Zm-4.55,1.4a19.92,19.92,0,0,1,3.69-1.29,7.44,7.44,0,0,0,0,3,5.1,5.1,0,0,0,.32,1,13.26,13.26,0,0,1-1.88,3.22,1.33,1.33,0,0,1-1.5.58c-1.17-.36-2.54-2.38-3-5.13A11.52,11.52,0,0,1,1322,664.43Z" transform="translate(-203.04 -296.66)"/><path class="cls-25" d="M1340.61,664.81a4.12,4.12,0,0,0,.13-.47A4.12,4.12,0,0,1,1340.61,664.81Z" transform="translate(-203.04 -296.66)"/><path class="cls-25" d="M1501.31,642.19a25.54,25.54,0,1,0,25.54,25.54A25.56,25.56,0,0,0,1501.31,642.19Zm0,49.79a24.25,24.25,0,1,1,24.25-24.25A24.28,24.28,0,0,1,1501.31,692Z" transform="translate(-203.04 -296.66)"/><path class="cls-25" d="M1501.31,647.15a20.58,20.58,0,1,0,20.58,20.58A20.6,20.6,0,0,0,1501.31,647.15Zm0,39.87a19.29,19.29,0,1,1,19.29-19.29A19.31,19.31,0,0,1,1501.31,687Z" transform="translate(-203.04 -296.66)"/><path class="cls-25" d="M1514.15,666a2.85,2.85,0,0,0,.13-.48A4.27,4.27,0,0,1,1514.15,666Z" transform="translate(-203.04 -296.66)"/><path class="cls-25" d="M1494.32,676.15c-2.74-.23-4.16-1.52-4.22-3.83a6,6,0,0,1,1.94-4.61c.52,2.67,1.93,4.92,3.49,5.4a2.14,2.14,0,0,0,2.4-.85,15.22,15.22,0,0,0,1.84-3,1.54,1.54,0,0,0,1,.45c1,0,1.9-.71,2.74-2.19a11.31,11.31,0,0,0,.61-1.26,1,1,0,0,0,.2.16.79.79,0,0,0,.94-.14,8.38,8.38,0,0,0,1.58-2.35,1.1,1.1,0,0,0,.43.49,1,1,0,0,0,1.17-.25.58.58,0,0,0,.16-.75c-.14-.26-.59-.45-1.26-.56h0c.71-1.63,1.2-3.33.94-4a.62.62,0,0,0-.63-.4c-.47,0-.81.52-1,1.45a9,9,0,0,0-.12,2.79l0,0c-.47,0-1,0-1.6,0a1.9,1.9,0,0,0-.24-1,.6.6,0,0,0-.65-.34c-.37.09-.5.52-.55.89,0,.14,0,.31,0,.5a29.67,29.67,0,0,0-5.23.9,17.07,17.07,0,0,0-5.56,2.48c-.05-.8,0-1.8.59-2.16s1.88.1,2.29.34l.4-.69c-.08,0-1.89-1.09-3.11-.33-.75.47-1.08,1.48-1,3,0,.14,0,.29,0,.44a7,7,0,0,0-2.59,5.57c.07,2.71,1.83,4.35,5,4.61a19.84,19.84,0,0,0,7.34-1.15c5.94-1.92,11.46-6,12.56-9.76C1512.56,670.71,1501,676.71,1494.32,676.15Zm13.25-16.56a7,7,0,0,1-.19.83A4.71,4.71,0,0,1,1507.57,659.59Zm-2.69,3.93c.47,0,.9,0,1.28,0a7.43,7.43,0,0,1-1.43,2.17s-.11-.07-.23-.45A10,10,0,0,0,1504.88,663.52Zm-4.31.45c1-.18,2-.3,2.86-.37a7.91,7.91,0,0,0,.23,1.63,10.68,10.68,0,0,1-.83,1.88c-.66,1.16-1.39,1.8-2,1.78a.93.93,0,0,1-.71-.48C1500.79,666.7,1501.09,665,1500.57,664Zm-.79.25c.39.52.3,1.67-.1,3A6.17,6.17,0,0,1,1499.78,664.22Zm-4.66,1.43a20,20,0,0,1,3.79-1.32,7.6,7.6,0,0,0,0,3.08,5.18,5.18,0,0,0,.34,1.05,14.17,14.17,0,0,1-1.94,3.3,1.38,1.38,0,0,1-1.53.59c-1.2-.38-2.61-2.44-3-5.26A12,12,0,0,1,1495.12,665.65Z" transform="translate(-203.04 -296.66)"/><path class="cls-14" d="M1622,961.39l-30.61,41.3-3,4.06-1.47,2-3.77,5.09-2.05,2.77-3.77,5.09-4,5.35-3.71,5-.06.07h0l-3.49,4.7,0,.06-.52.7-.06.08h0l-.65.88h0l-3.77,4.67v.4l-3.52,4.76h0l-4.55,6.15h0l-3.43,4.63h0l-3.77,5.07h0l-6.3,8.49h0l-.62.84-2.14,2.89h0l-5,6.68-6.58,8.46v.41l-3.4,4.6-.36.47h0l-4.74,6.39h0l-4.42,6,0,.06h0l-10.93,14.76h0l-16.27,22L1457.75,1183l-3.39,4.58-2,2.7c1,.15,2.08.3,3.12.43h0c3.62.48,7.24.93,10.85,1.31,1,.12,2,.23,3,.33l1.9.19c1.53.15,3.06.29,4.58.41l1.93.17.91.08c1,.09,2,.16,3,.23l.58,0c2.22.17,4.46.31,6.68.44l3,.15c.79.05,1.58.08,2.37.12h.45c1.32.06,2.64.12,3.95.16,1,0,2,.07,3,.08l3.44.09,3,0h3.21c1,0,2,0,3,0,.56,0,1.11,0,1.67,0s1.23,0,1.84,0l1.2,0h1.19l1.68,0h1.28l1.21,0q11.82-.32,23.45-1.29h0q13.41-1.1,26.52-3,14.19-2.1,28-5.16l.46-.1a.7.7,0,0,1,0,.12l8.68-2.14c1.2-.29,2.41-.58,3.61-.89q17.1-4.34,33.54-10.06c1.84-.64,3.66-1.29,5.48-2l1.36-.5q5.12-1.86,10.14-3.88c.91-.35,1.82-.72,2.73-1.09h0l.55-.22h0c1.08-.43,2.14-.87,3.19-1.31l2.38-1c.94-.39,1.86-.79,2.79-1.19l1.79-.79h0l3.11-1.39h0q15.27-6.85,29.78-14.92c1-.56,2-1.13,3-1.71h0l53.27-71.89Z" transform="translate(-203.04 -296.66)"/><path class="cls-13" d="M1541.46,1109.49v4.25l3.1-4.18,0-.06h-3.15Zm-5.83,5.61a23.85,23.85,0,0,0-3.16,1.56l-6.8,9.17-5.21,7v9.23l6.17-8.31,14.83-20A17.42,17.42,0,0,0,1535.63,1115.1Zm-25.12,31.17-.77,1-3,4-13.39,18.07v9.23l9.47-12.78,7.58-10.22,4-5.36,2.95-4h-6.83Zm113.27-152.82-31.88,43-.28.38-1.93,2.6-2.48,3.34-1.29,1.72v0l-5.91,8-2.46,2.9v.4L1576,1058l-2.16,2.9-8.8,11.87h0l-.19.25-.44.59h0l-2.8,3.77v.4l-8.36,10.88L1550,1093l-.53.72-9,12.12-2.68,3.61,0,.06-5.26,7.11-6.8,9.17-5.21,7-3.77,5.09-6.18,8.33-.77,1-3,4-13.39,18.07-3.76,5.07-6.37,8.59-7.37,9.94,1.93.17.91.08c1,.09,2,.16,3,.23l.58,0,7.74-10.45h0l3.28-4.44,9.47-12.78,7.58-10.22,4-5.36,2.95-4h0l3.1-4.19,6.17-8.31,14.83-20v0l3.1-4.18,0-.06h0l4.82-6.1V1103l3.76-5.09,3-4.05,5.37-7.24,3.76-5.08,4.25-5.73,1.63-2.19.62-.84h0l2-2.64,3.77-5.09,4-5.37,4-5.38.4-.52v0l3.76-5.08,2.89-3.9,1.35-1.79v0l3.47-4.68.3-.4.76-1,14.52-19.6a20,20,0,0,1,28-4.17l74.22,55a22.08,22.08,0,0,1,4.58,30.89l-44.77,60.42-2.64,3.56,2.38-1c.94-.39,1.86-.79,2.79-1.19l1.79-.79h0l3.11-1.39h0l58.17-78.47Zm-113.27,152.82-.77,1-3,4-13.39,18.07v9.23l9.47-12.78,7.58-10.22,4-5.36,2.95-4h-6.83Zm25.12-31.17a23.85,23.85,0,0,0-3.16,1.56l-6.8,9.17-5.21,7v9.23l6.17-8.31,14.83-20A17.42,17.42,0,0,0,1535.63,1115.1Zm5.83-5.61v4.25l3.1-4.18,0-.06h-3.15Z" transform="translate(-203.04 -296.66)"/><path class="cls-13" d="M1603.14,1185a.7.7,0,0,0,0-.12l-.46.1q-13.85,3-28,5.16-13.11,1.93-26.52,3h0q-11.62,1-23.45,1.29l-1.21,0h-1.28c-.07-1.14-.1-2.28-.08-3.41a44.46,44.46,0,0,1,.81-8,45,45,0,0,1,8.09-18.36,1.25,1.25,0,0,0,.09-.12,44.68,44.68,0,0,1,10.45-10.11,44.81,44.81,0,0,1,11.51-5.76c1.25-.42,2.5-.78,3.77-1.08a44.42,44.42,0,0,1,9-1.22c1.26,0,2.51,0,3.76,0a45,45,0,0,1,8.37,1.18c1.26.3,2.51.65,3.75,1.07a44,44,0,0,1,4.25,1.66c1.28.57,2.53,1.2,3.76,1.9a46.41,46.41,0,0,1,4,2.53l.72.51c1,.74,2,1.52,2.88,2.32h0l.17.15c.71.63,1.39,1.26,2,1.93a50.38,50.38,0,0,1,3.77,4.23v0c.51.65,1,1.31,1.45,2v.06a42.67,42.67,0,0,1,3.76,6.45v0c.49,1.06.94,2.13,1.34,3.21h0a45.12,45.12,0,0,1,2,7.09Z" transform="translate(-203.04 -296.66)"/><path class="cls-26" d="M1564.83,1038.54h0l-3.77,4.72v.35l-3.52,4.76-4.55,6.15h0l-3.43,4.63h0l-3.77,5.07h0l-6.3,8.49h0l-.62.84-2.14,2.89h0l-5,6.68-6.58,8.52v.35l-3.4,4.6-.36.47h0l-4.74,6.39-4.42,6,0,.06h0l-10.93,14.76h0l-16.27,22L1457.75,1183l-3.39,4.58-2,2.7c1,.15,2.08.3,3.12.43h0c3.62.48,7.24.93,10.85,1.31,1,.12,2,.23,3,.33l1.9.19c1.53.15,3.06.29,4.58.41l1.93.17.91.08c1,.09,2,.16,3,.23l.58,0c2.22.17,4.46.31,6.68.44l3,.15c.79.05,1.58.08,2.37.12h.45q1.18-5.54,2.7-11.17c1.53-5.7,3.3-11.45,5.26-17.22,1.5-4.43,3.13-8.87,4.83-13.29.68-1.75,1.37-3.49,2.07-5.24l.42-1h0c2.08-5.15,4.27-10.26,6.52-15.3v-.34c1.24-2.76,2.5-5.17,3.78-7.89q3.15-6.73,6.37-13.2l0-.06c2.91-5.85,5.83-11.51,8.69-16.93.39-.72.76-1.17,1.14-1.79v-.34c1.27-2.39,2.53-4.74,3.77-7,1.84-3.4,3.65-6.67,5.39-9.8l.47-.85c1.1-2,2.17-3.55,3.22-5.39V1067c2.53-4.5,4.87-8.62,6.94-12.29,1.25-2.22,2.4-4.26,3.43-6.13.4-.72.79-1.41,1.14-2.07,1.66-3,2.94-5.48,3.77-7.28.27-.6.49-1.12.65-1.58Z" transform="translate(-203.04 -296.66)"/><path class="cls-27" d="M1609.84,1154.34l0,20.79c0,.21,0,.41,0,.62h0a7.78,7.78,0,0,1-1.35,3.84,8.06,8.06,0,0,1-3.75,3,8.38,8.38,0,0,1-1.11.34l-.36.08c-.23,0-.46.07-.7.09s-.47,0-.72,0H1483.25l-25.5,0h-45.26q-6.37-1.38-12.77-2.9l-3-.74q-4.25-1-8.51-2.12c-1.25-.31-2.5-.63-3.75-1q-3.23-.82-6.46-1.7-3.48-.94-7-1.93l-3-.86q-8.65-2.47-17.3-5.18h0l-.67-.21q-2.61-.81-5.21-1.66c-1-.31-2-.65-3-1-16.26-5.29-32.45-11.18-48.44-17.63h4.62l86.55.06h3.77l23.29,0h190.7a7.64,7.64,0,0,1,1.06.12,8,8,0,0,1,5.22,3.41A8,8,0,0,1,1609.84,1154.34Z" transform="translate(-203.04 -296.66)"/><path class="cls-28" d="M1447.27,1183h-34.78q-6.37-1.38-12.77-2.9l-3-.74q-4.25-1-8.51-2.12c-1.25-.31-2.5-.63-3.75-1q-3.23-.82-6.46-1.7-3.48-.94-7-1.93l-3-.86q-8.65-2.47-17.3-5.18h0l-.67-.21q-2.61-.81-5.21-1.66c-1-.31-2-.65-3-1-16.26-5.29-32.45-11.18-48.44-17.63h4.62l86.55.06h3.77l23.29,0h14a75.22,75.22,0,0,0,6.37,17.63,60.38,60.38,0,0,0,13,17.13c.34.32.71.63,1.07,1,.07.07.15.12.23.19C1446.54,1182.42,1446.91,1182.73,1447.27,1183Z" transform="translate(-203.04 -296.66)"/><rect class="cls-28" x="1362.75" y="849.65" width="3.76" height="36.8"/><rect class="cls-28" x="1350.02" y="849.64" width="3.76" height="36.8"/><rect class="cls-28" x="1537.78" y="1146.29" width="3.76" height="36.8" transform="translate(-201.83 -298.26) rotate(0.06)"/><rect class="cls-28" x="1311.34" y="849.61" width="3.76" height="36.8"/><rect class="cls-28" x="1286.59" y="849.59" width="3.76" height="36.8"/><rect class="cls-28" x="1248.64" y="849.57" width="3.76" height="36.8"/><rect class="cls-28" x="1213.11" y="849.54" width="3.76" height="36.8"/><path class="cls-28" d="M1388.2,1146.18l0,31.06c-1.25-.31-2.5-.63-3.75-1v-30.09Z" transform="translate(-203.04 -296.66)"/><rect class="cls-28" x="1374.88" y="849.65" width="3.76" height="36.8"/><rect class="cls-28" x="1382.88" y="849.66" width="3.76" height="36.8"/><rect class="cls-28" x="1593.65" y="1146.33" width="3.76" height="36.8" transform="matrix(1, 0, 0, 1, -201.83, -298.32)"/><path class="cls-28" d="M1603.25,1146.46l0,36.54a7.32,7.32,0,0,1-1.41.13h-2.35l0-36.8h2.35A8.24,8.24,0,0,1,1603.25,1146.46Z" transform="translate(-203.04 -296.66)"/><path class="cls-28" d="M1608.47,1149.87l0,29.73a8.14,8.14,0,0,1-3.76,3l0-35.72A8.12,8.12,0,0,1,1608.47,1149.87Z" transform="translate(-203.04 -296.66)"/><path class="cls-27" d="M1636.91,1117.57v20.78a7.93,7.93,0,0,1-1.38,4.47,8,8,0,0,1-3.76,3,8.18,8.18,0,0,1-2.88.54l-331-.23a8,8,0,0,1-8-7.6c0-.14,0-.27,0-.41l0-20.78v-.41a8,8,0,0,1,7.06-7.54,7.46,7.46,0,0,1,1-.06l331,.23a8,8,0,0,1,6.63,3.54A7.93,7.93,0,0,1,1636.91,1117.57Z" transform="translate(-203.04 -296.66)"/><path class="cls-28" d="M1474.35,1146.24l-177.33-.12c-3.81,0-7-3.38-7.14-7.6,0-.14,0-.27,0-.41l0-20.78v-.41c.18-3.9,2.89-7.09,6.31-7.54a5.73,5.73,0,0,1,.84-.06l155.56.11s0,0,0,.06C1455.1,1120.32,1460.88,1135.27,1474.35,1146.24Z" transform="translate(-203.04 -296.66)"/><rect class="cls-28" x="1389.83" y="812.87" width="3.76" height="36.8"/><rect class="cls-28" x="1377.09" y="812.86" width="3.76" height="36.8"/><rect class="cls-28" x="1361.82" y="812.85" width="3.76" height="36.8"/><rect class="cls-28" x="1338.42" y="812.83" width="3.76" height="36.8"/><rect class="cls-28" x="1313.66" y="812.81" width="3.76" height="36.8"/><rect class="cls-28" x="1275.72" y="812.79" width="3.76" height="36.8"/><rect class="cls-28" x="1240.19" y="812.76" width="3.76" height="36.8"/><rect class="cls-28" x="1208.46" y="812.74" width="3.76" height="36.8"/><rect class="cls-28" x="1401.95" y="812.87" width="3.76" height="36.8"/><rect class="cls-28" x="1409.96" y="812.88" width="3.76" height="36.8"/><rect class="cls-28" x="1417.69" y="812.88" width="3.76" height="36.8"/><path class="cls-28" d="M1630.32,1109.68l0,36.54a7.35,7.35,0,0,1-1.42.13h-2.35l0-36.8h2.35A8.22,8.22,0,0,1,1630.32,1109.68Z" transform="translate(-203.04 -296.66)"/><path class="cls-28" d="M1635.54,1113.09l0,29.73a8,8,0,0,1-3.76,3l0-35.72A8.15,8.15,0,0,1,1635.54,1113.09Z" transform="translate(-203.04 -296.66)"/><path class="cls-27" d="M1593.48,1080.79l0,20.79a7.92,7.92,0,0,1-1.37,4.47,8,8,0,0,1-3.76,3,7.27,7.27,0,0,1-1.47.41l-.46.07-.37,0h-.58l-331-.23a8,8,0,0,1-8-7.6c0-.14,0-.27,0-.41v-20.78c0-.14,0-.28,0-.41a8,8,0,0,1,8-7.6l331,.23h.42a8.22,8.22,0,0,1,2.45.53c.24.1.48.2.7.31l.41.23,0,0,.41.25.06,0a3.32,3.32,0,0,1,.36.26,5.9,5.9,0,0,1,.8.7,2.39,2.39,0,0,1,.22.23.1.1,0,0,1,0,.05.67.67,0,0,1,.14.15l0,0a3.25,3.25,0,0,1,.23.29c.11.14.22.28.32.43A7.92,7.92,0,0,1,1593.48,1080.79Z" transform="translate(-203.04 -296.66)"/><path class="cls-28" d="M1430.92,1109.47l-177.34-.12c-3.8,0-6.94-3.39-7.13-7.6,0-.14,0-.27,0-.41v-20.78c0-.14,0-.28,0-.41.2-4.22,3.34-7.6,7.15-7.6l155.56.11c.06.28.12.56.2.85,2.57,10.74,8.38,25.2,21.48,35.91Z" transform="translate(-203.04 -296.66)"/><rect class="cls-28" x="1346.4" y="776.1" width="3.76" height="36.8"/><rect class="cls-28" x="1333.66" y="776.09" width="3.76" height="36.8"/><rect class="cls-28" x="1318.39" y="776.08" width="3.76" height="36.8"/><rect class="cls-28" x="1294.98" y="776.06" width="3.76" height="36.8"/><rect class="cls-28" x="1270.23" y="776.04" width="3.76" height="36.8"/><rect class="cls-28" x="1232.28" y="776.02" width="3.76" height="36.8"/><rect class="cls-28" x="1196.75" y="775.99" width="3.76" height="36.8"/><rect class="cls-28" x="1368.06" y="1072.63" width="3.76" height="36.8" transform="matrix(1, 0, 0, 1, -201.9, -298.08)"/><rect class="cls-28" x="1358.52" y="776.1" width="3.76" height="36.8"/><rect class="cls-28" x="1366.53" y="776.11" width="3.76" height="36.8"/><rect class="cls-28" x="1374.26" y="776.11" width="3.76" height="36.8"/><path class="cls-28" d="M1586.89,1072.91l0,36.54a7.32,7.32,0,0,1-1.41.13h-2.35l0-36.8h2.35A8.22,8.22,0,0,1,1586.89,1072.91Z" transform="translate(-203.04 -296.66)"/><path class="cls-28" d="M1592.11,1076.32l0,29.73a8,8,0,0,1-3.76,3l0-35.72A8.12,8.12,0,0,1,1592.11,1076.32Z" transform="translate(-203.04 -296.66)"/><path class="cls-27" d="M1617.84,1044.86v20.78a7.94,7.94,0,0,1-1.38,4.48,8,8,0,0,1-5.23,3.4,8.22,8.22,0,0,1-1.41.13l-331-.23a7.93,7.93,0,0,1-3.57-.85,8.06,8.06,0,0,1-4.4-6.42c0-.11,0-.22,0-.33s0-.28,0-.41v-20.78c0-.14,0-.28,0-.42a8,8,0,0,1,7.06-7.53,7.46,7.46,0,0,1,.95-.06l331,.23a7.32,7.32,0,0,1,1.41.13,7.88,7.88,0,0,1,1.46.41,8.06,8.06,0,0,1,3.76,3A7.92,7.92,0,0,1,1617.84,1044.86Z" transform="translate(-203.04 -296.66)"/><path class="cls-28" d="M1455.28,1073.54l-177.33-.12a6.51,6.51,0,0,1-3.2-.85,8.1,8.1,0,0,1-3.92-6.42c0-.11,0-.22,0-.33s0-.28,0-.41v-20.78c0-.14,0-.28,0-.42.18-3.89,2.89-7.08,6.3-7.53a6,6,0,0,1,.85-.06l155.56.11s0,0,0,.06c2.42,10.55,8,25,20.72,35.9C1454.59,1073,1454.93,1073.26,1455.28,1073.54Z" transform="translate(-203.04 -296.66)"/><rect class="cls-28" x="1370.76" y="740.16" width="3.76" height="36.8"/><rect class="cls-28" x="1358.02" y="740.15" width="3.76" height="36.8"/><rect class="cls-28" x="1342.75" y="740.14" width="3.76" height="36.8"/><rect class="cls-28" x="1319.34" y="740.13" width="3.76" height="36.8"/><rect class="cls-28" x="1294.59" y="740.11" width="3.76" height="36.8"/><rect class="cls-28" x="1256.64" y="740.08" width="3.76" height="36.8"/><rect class="cls-28" x="1221.11" y="740.06" width="3.76" height="36.8"/><rect class="cls-28" x="1189.39" y="740.04" width="3.76" height="36.8"/><rect class="cls-28" x="1382.88" y="740.17" width="3.76" height="36.8"/><rect class="cls-28" x="1390.89" y="740.18" width="3.76" height="36.8"/><rect class="cls-28" x="1398.62" y="740.18" width="3.76" height="36.8"/><path class="cls-28" d="M1611.25,1037l0,36.54a8.22,8.22,0,0,1-1.41.13h-2.35l0-36.8h2.35A7.32,7.32,0,0,1,1611.25,1037Z" transform="translate(-203.04 -296.66)"/><path class="cls-28" d="M1616.47,1040.39l0,29.72a8,8,0,0,1-3.76,3l0-35.72A8,8,0,0,1,1616.47,1040.39Z" transform="translate(-203.04 -296.66)"/><path class="cls-27" d="M1593.53,1008.11v20.78a8,8,0,0,1-5.14,7.46,7.27,7.27,0,0,1-1.47.41,3.65,3.65,0,0,1-.46.07l-.26,0-.26,0h-.43l-331-.23a8,8,0,0,1-8-7.6c0-.14,0-.27,0-.41v-20.78c0-.14,0-.28,0-.41a8,8,0,0,1,8-7.59l331,.22a8.22,8.22,0,0,1,1.41.13,8,8,0,0,1,5.22,3.41A7.93,7.93,0,0,1,1593.53,1008.11Z" transform="translate(-203.04 -296.66)"/><path class="cls-28" d="M1431,1036.78l-177.34-.12c-3.8,0-6.94-3.38-7.13-7.6,0-.14,0-.27,0-.41v-20.78c0-.14,0-.28,0-.41.2-4.22,3.34-7.6,7.15-7.59l155.55.1c2.48,10.82,8.24,25.77,21.69,36.76Z" transform="translate(-203.04 -296.66)"/><rect class="cls-28" x="1549.48" y="1000.07" width="3.76" height="36.8" transform="translate(-201.98 -298.27) rotate(0.06)"/><rect class="cls-28" x="1333.71" y="703.4" width="3.76" height="36.8"/><rect class="cls-28" x="1318.44" y="703.39" width="3.76" height="36.8"/><rect class="cls-28" x="1295.03" y="703.37" width="3.76" height="36.8"/><rect class="cls-28" x="1270.28" y="703.35" width="3.76" height="36.8"/><rect class="cls-28" x="1232.33" y="703.33" width="3.76" height="36.8"/><rect class="cls-28" x="1196.8" y="703.3" width="3.76" height="36.8"/><rect class="cls-28" x="1165.08" y="703.28" width="3.76" height="36.8"/><rect class="cls-28" x="1358.57" y="703.41" width="3.76" height="36.8"/><rect class="cls-28" x="1366.58" y="703.42" width="3.76" height="36.8"/><rect class="cls-28" x="1374.31" y="703.42" width="3.76" height="36.8"/><path class="cls-28" d="M1586.94,1000.22l0,36.54a7.32,7.32,0,0,1-1.41.13h-2.35l0-36.8h2.35A8.22,8.22,0,0,1,1586.94,1000.22Z" transform="translate(-203.04 -296.66)"/><path class="cls-28" d="M1592.16,1003.63l0,29.73a8,8,0,0,1-3.76,3l0-35.72A8.12,8.12,0,0,1,1592.16,1003.63Z" transform="translate(-203.04 -296.66)"/><path class="cls-29" d="M1638.27,1175.45Q1627,1179,1615.43,1182c-1.2.31-2.41.6-3.61.89q-4.3,1.07-8.65,2l-.46.1q-13.85,3-28,5.16-13.11,1.93-26.52,3h0q-11.62,1-23.45,1.29l-1.21,0h-1.28l-1.68,0h-1.19l-1.2,0c-.61,0-1.22,0-1.84,0s-1.11,0-1.67,0c-1,0-2,0-3,0h-3.21l-3,0-3.44-.09c-1,0-2,0-3-.08-1.31,0-2.63-.1-3.95-.16h-.45c-.79,0-1.58-.07-2.37-.12l-3-.15c-2.22-.13-4.46-.27-6.68-.44l-.58,0c-1-.07-2-.14-3-.23l-.91-.08-1.93-.17c-1.52-.12-3.05-.26-4.58-.41l-1.9-.19c-1-.1-2-.21-3-.33-3.61-.38-7.23-.83-10.85-1.31h0c-1-.13-2.08-.28-3.12-.43l-1-.16a8.24,8.24,0,0,1-.85-.11l-2.15-.32c-.2,0-.4-.06-.59-.09l-.12,0h0l-.18,0q-4-.6-8.12-1.31l-2.84-.5-2.83-.51-3.19-.61c-1-.18-2-.38-3-.58q-7.43-1.44-14.87-3.06h0q-6.37-1.38-12.77-2.9l-3-.74-1.46-.36a117.54,117.54,0,0,1,60.42-113q2.25-1.23,4.55-2.37,2.18-1.32,4.43-2.58a117.53,117.53,0,0,1,173.65,114.44Z" transform="translate(-203.04 -296.66)"/><path class="cls-29" d="M1660.93,1092.29a117,117,0,0,0-43.09-44.47l-1.37-.8c-1.24-.71-2.49-1.4-3.76-2-.49-.27-1-.52-1.47-.76-1.24-.64-2.49-1.25-3.76-1.83-.68-.31-1.36-.63-2-.92-1.25-.56-2.5-1.08-3.76-1.58s-2.64-1-4-1.52l-.3-.1c-1.15-.41-2.3-.8-3.47-1.17l-.8-.25h-.34a4.75,4.75,0,0,0-.89-.38c-.77-.24-1.55-.46-2.34-.68l-1.18-.33-1.47-.38c-1.25-.32-2.51-.62-3.76-.89-.68-.15-1.36-.3-2.05-.43-1.25-.25-2.51-.49-3.77-.69s-2.64-.43-4-.61-2.46-.3-3.7-.42h-.06c-1.41-.14-2.82-.25-4.24-.35-1.25-.07-2.51-.13-3.77-.18q-4.17-.12-8.36,0c-1.24,0-2.5.12-3.76.21q-4.48.32-9,1c-1.25.18-2.5.39-3.75.62a116.47,116.47,0,0,0-11.51,2.73c-.77.22-1.53.45-2.3.7h0l-.18.06-.35.11a117.89,117.89,0,0,0-21,9l-.08,0c-1.24.69-2.48,1.39-3.68,2.11l-.66.4a116.94,116.94,0,0,0-28.41,24.15c-.25.28-.49.57-.72.85a117.42,117.42,0,0,0-20.51,35.88.14.14,0,0,0,0,.06l-.31.87a116.07,116.07,0,0,0-3.77,13.32v.34a113.94,113.94,0,0,0-2.74,22.2h0a116.26,116.26,0,0,0,4.4,34.74c.18.68.39,1.36.6,2q1,3.32,2.23,6.61c.19,0,.39.07.59.09l2.15.32a8.24,8.24,0,0,0,.85.11l1,.16c1,.15,2.08.3,3.12.43h0c3.62.48,7.24.93,10.85,1.31,1,.12,2,.23,3,.33l1.9.19c1.53.15,3.06.29,4.58.41l1.93.17.91.08c1,.09,2,.16,3,.23l.58,0c2.22.17,4.46.31,6.68.44l3,.15c.79.05,1.58.08,2.37.12h.45c1.32.06,2.64.12,3.95.16,1,0,2,.07,3,.08l3.44.09,3,0h3.21c1,0,2,0,3,0,.56,0,1.11,0,1.67,0s1.23,0,1.84,0l1.2,0h1.19l1.68,0h1.28l1.21,0q11.82-.32,23.45-1.29h0q13.41-1.1,26.52-3,14.19-2.1,28-5.16l.46-.1a.7.7,0,0,1,0,.12l8.68-2.14c1.2-.29,2.41-.58,3.61-.89q17.1-4.34,33.54-10.06c1.84-.64,3.66-1.29,5.48-2l1.36-.5q5.12-1.86,10.14-3.88c.91-.35,1.82-.72,2.73-1.09h0l.55-.22h0c1.08-.43,2.14-.87,3.19-1.31l2.38-1c.1-.85.19-1.7.26-2.55A117,117,0,0,0,1660.93,1092.29Z" transform="translate(-203.04 -296.66)"/><path class="cls-27" d="M1652,1097.23a116.78,116.78,0,0,0-34.12-38.6c-.45-.33-.9-.65-1.37-1q-1.85-1.31-3.75-2.53l-1.47-.93c-1.24-.77-2.5-1.52-3.77-2.24-.68-.39-1.36-.77-2-1.14-1.24-.69-2.49-1.34-3.76-2s-2.64-1.28-4-1.88-2.5-1.12-3.77-1.64l-1.35-.55c-1-.38-1.92-.75-2.89-1.1s-1.65-.6-2.47-.89l-1.28-.42q-4.14-1.38-8.36-2.44c-1.25-.31-2.51-.6-3.77-.87-2.72-.59-5.48-1.09-8.25-1.48l-.72-.1c-1.25-.18-2.5-.32-3.76-.45-.49-.06-1-.1-1.49-.15h-.36l-.28-.06h-.73c-1.6-.17-3.44-.28-5-.34-1.25,0-2.5-.08-3.76-.08-3,0-6,.08-9,.3-.46,0-.93.06-1.41.11h-.48l-.2.06h-.46a105.81,105.81,0,0,0-11.79,1.76c-1.25.24-2.5.51-3.76.81a116.27,116.27,0,0,0-21,7c-1.25.55-2.51,1.14-3.76,1.75l-.66.32c-1.56.77-3.11,1.57-4.65,2.43a117.22,117.22,0,0,0-28.28,21.71l-.61.64a2,2,0,0,1-.2.21h0a117.3,117.3,0,0,0-23,35.87.14.14,0,0,1,0,.06,118,118,0,0,0-8.48,36.74,116.73,116.73,0,0,0,3.39,36.79c.4,1.6.84,3.18,1.32,4.76l2.84.5q4.07.7,8.12,1.31l.18,0h0l.12,0c.19,0,.39.07.59.09l2.15.32a8.24,8.24,0,0,0,.85.11l1,.16c1,.15,2.08.3,3.12.43h0c3.62.48,7.24.93,10.85,1.31,1,.12,2,.23,3,.33l1.9.19c1.53.15,3.06.29,4.58.41l1.93.17.91.08c1,.09,2,.16,3,.23l.58,0c2.22.17,4.46.31,6.68.44l3,.15c.79.05,1.58.08,2.37.12h.45c1.32.06,2.64.12,3.95.16,1,0,2,.07,3,.08l3.44.09,3,0h3.21c1,0,2,0,3,0,.56,0,1.11,0,1.67,0s1.23,0,1.84,0l1.2,0h1.19l1.68,0h1.28l1.21,0q11.82-.32,23.45-1.29h0q13.41-1.1,26.52-3,14.19-2.1,28-5.16l.46-.1a.7.7,0,0,1,0,.12l8.68-2.14c1.2-.29,2.41-.58,3.61-.89q17.1-4.34,33.54-10.06c1.84-.64,3.66-1.29,5.48-2l1.36-.5q5.12-1.86,10.14-3.88A116.84,116.84,0,0,0,1652,1097.23Z" transform="translate(-203.04 -296.66)"/><path class="cls-28" d="M1643.47,1103.49a106.39,106.39,0,0,0-27.66-32.56c-1-.8-2.06-1.59-3.12-2.35-.48-.36-1-.71-1.47-1-1.23-.87-2.49-1.71-3.76-2.52-.67-.44-1.35-.86-2-1.28-1.24-.75-2.5-1.49-3.77-2.18s-2.63-1.43-4-2.09-2.5-1.23-3.76-1.8c-1.41-.63-2.82-1.24-4.25-1.8-1.24-.51-2.49-1-3.75-1.44l-.4-.14q-2.73-1-5.51-1.78c-.82-.25-1.63-.48-2.45-.7-1.25-.34-2.5-.66-3.76-.94-3-.69-6-1.25-9-1.7-1.25-.18-2.5-.33-3.76-.46q-.55-.07-1.14-.12c-.79-.08-1.59-.15-2.38-.21h0q-4-.3-8-.3c-1.25,0-2.51,0-3.76.06a106.82,106.82,0,0,0-19.64,2.53c-1.26.28-2.52.59-3.77.93a106.52,106.52,0,0,0-21,8c-1.12.57-2.23,1.15-3.34,1.77l-.42.23a107.23,107.23,0,0,0-16.3,11.13c-.35.27-.69.55-1,.85-1.11.93-2.19,1.89-3.25,2.86-1.29,1.19-2.54,2.39-3.76,3.64a105.69,105.69,0,0,0-20.45,29.37.14.14,0,0,0,0,.06,1.66,1.66,0,0,0-.13.27,107.22,107.22,0,0,0-5.69,15.07v.22a1.77,1.77,0,0,0-.15.28,99.52,99.52,0,0,0-3.63,17.43v0h0v0h0v0h0v.06h0v0h0v0h0v.06h0v0h0v0h0v.06h0v0h0v0h0v.06h0v0h0v0c-.1.88-.19,1.77-.26,2.67-.27,3-.39,6-.39,9.07a105.9,105.9,0,0,0,3.4,26.62l.3,1.1c.61,2.26,1.29,4.48,2,6.7l2.15.32a8.24,8.24,0,0,0,.85.11l1,.16c1,.15,2.08.3,3.12.43-.39-1-.78-2.08-1.12-3.13q-.79-2.27-1.47-4.58c-.44-1.54-.85-2.68-1.22-4.24v-.4a99.57,99.57,0,0,1-2.31-32.16,101.52,101.52,0,0,1,3.62-19.11q1.14-4,2.58-7.75h0a99.91,99.91,0,0,1,4.35-9.86.09.09,0,0,1,0-.06,99.06,99.06,0,0,1,13.33-19.93c1.2-1.42,2.45-2.79,3.76-4.13a97.82,97.82,0,0,1,13.6-11.81h0c.4-.29.79-.58,1.2-.85h.08c1.87-1.32,3.72-2.57,5.69-3.75,1.15-.71,2.32-1.38,3.5-2l.27-.15a99.76,99.76,0,0,1,21-8.57c1.25-.36,2.51-.68,3.77-1a99.88,99.88,0,0,1,19.65-2.69c1.24,0,2.48-.07,3.72-.07h0c1.14,0,2.29,0,3.43.06h0c1.16,0,2.34.1,3.5.19,1.53.1,3.06.24,4.57.41q1.89.22,3.75.51c3,.46,6,1.06,9,1.79.72.18,1.44.36,2.16.56l1.6.45c1.34.38,2.66.8,4,1.23,1.47.49,2.93,1,4.38,1.57,1.27.49,2.51,1,3.76,1.53,1.43.62,2.84,1.28,4.25,2,1.26.62,2.52,1.26,3.76,1.94s2.66,1.48,4,2.26,2.53,1.55,3.77,2.38c.69.45,1.37.92,2,1.39.44.31.89.62,1.32.94h0A100.66,100.66,0,0,1,1649,1171.9c1.84-.64,3.66-1.29,5.48-2l1.36-.5A106.24,106.24,0,0,0,1643.47,1103.49Z" transform="translate(-203.04 -296.66)"/><path class="cls-28" d="M1546.61,1191.79a25.49,25.49,0,0,1-5.22-8.5l-19.28,7.83c0,1.13,0,2.27.08,3.41h1.28l1.21,0q11.82-.32,23.45-1.29A19.33,19.33,0,0,1,1546.61,1191.79Zm0,0a25.49,25.49,0,0,1-5.22-8.5l-19.28,7.83c0,1.13,0,2.27.08,3.41h1.28l1.21,0q11.82-.32,23.45-1.29A19.33,19.33,0,0,1,1546.61,1191.79Zm0,0a25.49,25.49,0,0,1-5.22-8.5l-19.28,7.83c0,1.13,0,2.27.08,3.41h1.28l1.21,0q11.82-.32,23.45-1.29A19.33,19.33,0,0,1,1546.61,1191.79Zm0,0a25.49,25.49,0,0,1-5.22-8.5l-19.28,7.83c0,1.13,0,2.27.08,3.41h1.28l1.21,0q11.82-.32,23.45-1.29A19.33,19.33,0,0,1,1546.61,1191.79Zm0,0a25.49,25.49,0,0,1-5.22-8.5l-19.28,7.83c0,1.13,0,2.27.08,3.41h1.28l1.21,0q11.82-.32,23.45-1.29A19.33,19.33,0,0,1,1546.61,1191.79Zm0,0a25.49,25.49,0,0,1-5.22-8.5l-19.28,7.83c0,1.13,0,2.27.08,3.41h1.28l1.21,0q11.82-.32,23.45-1.29A19.33,19.33,0,0,1,1546.61,1191.79Zm56.62-20.87a35.37,35.37,0,0,0-1.77-5.53,41.37,41.37,0,0,0-2-4.23,34.22,34.22,0,0,0-2-3.3c-.05-.08-.11-.15-.17-.23h0a26.28,26.28,0,0,0-3.6-4.06l0,0a32.24,32.24,0,0,0-3.92-3.06,35.26,35.26,0,0,0-3.76-2.11,32.36,32.36,0,0,0-3.54-1.44c-.23-.08-.47-.17-.71-.23s-.74-.25-1.13-.36h0l-.42-.11a55.28,55.28,0,0,0-11.51-2l-.47,0c-1.08-.07-2.17-.12-3.29-.17-4.32-.17-8.94-.19-13.83-.06q-3.16.1-5.82,0c-1.35,0-2.61-.11-3.76-.22h-.21a24.38,24.38,0,0,1-6.87-1.51,12.07,12.07,0,0,1-4.59-3.11,16.38,16.38,0,0,1-2.93-4.82l-.22-.58a18,18,0,0,1-1.1-5.07,12.4,12.4,0,0,1,.15-2.87,11.51,11.51,0,0,1,.69-2.44,13,13,0,0,1,3.27-4.64,15.35,15.35,0,0,1,2.84-2.09,23.85,23.85,0,0,1,3.16-1.56,17.42,17.42,0,0,1,5.82-1.34h0a13.94,13.94,0,0,1,3.77.33,14.57,14.57,0,0,1,3.24,1.14q6,2.91,9.7,12.15l6.69-2.71,3.77-1.53,11.51-4.67,2-.79c-.61-1.51-1.27-3-2-4.32v-.4c-.68-1.28-1.41-2.2-2.17-3.39l0-.06-.66-1a37.52,37.52,0,0,0-3-3.85c-.32-.36-.63-.7-1-1h0a36.62,36.62,0,0,0-3.76-3.43,32.07,32.07,0,0,0-4.24-2.85c-.53-.31-1.08-.6-1.64-.87s-1.41-.66-2.12-1a34.36,34.36,0,0,0-5.36-1.66c-1-.22-2-.39-3-.53-.78-.11-1.57-.19-2.37-.25l-.86,0-.53,0a43.69,43.69,0,0,0-9,.64c-1.24.22-2.5.49-3.77.82l-.32.08-.81-2-3.8-9.38-2.16-5.32-4.41,1.79-3.76,1.52-5.09,2.06,5.08,12.54.36.88,1.24,3.06c-.55.28-1.08.57-1.6.86a52.22,52.22,0,0,0-4.74,3h0a45.81,45.81,0,0,0-5.83,4.84c-.37.37-.73.75-1.08,1.12l-.06.06a36.25,36.25,0,0,0-6.54,9.51,29.68,29.68,0,0,0-1.89,5.25h0a29.73,29.73,0,0,0-.93,6.81,32.19,32.19,0,0,0,2.52,12.87c.33.78.66,1.55,1,2.28h0a34.89,34.89,0,0,0,2.89,5c.29.42.59.84.9,1.23a26.23,26.23,0,0,0,2.75,3.07l.33.31a30.86,30.86,0,0,0,3.63,2.84,30.35,30.35,0,0,0,3.76,2.17,31.48,31.48,0,0,0,3.82,1.56,48.33,48.33,0,0,0,9.14,2.1c1.65.23,3.36.4,5.13.49l1.55.07c1.23.06,2.48.1,3.76.12,3.64.06,7.47,0,11.51-.18l.34,0c1.19-.07,2.34-.11,3.42-.13a57.29,57.29,0,0,1,5.92.2,27,27,0,0,1,3,.43,20.4,20.4,0,0,1,3.77,1.08h0a12.88,12.88,0,0,1,4.79,3.25,17.87,17.87,0,0,1,3.22,5.33,3.41,3.41,0,0,0,.33.47v.4a14.77,14.77,0,0,1,.82,4.8,11.63,11.63,0,0,1-.21,2.2,12,12,0,0,1-1.08,3.21,14.58,14.58,0,0,1-2.77,3.8q14.19-2.1,28-5.16l.46-.1c.16-.64.3-1.29.41-1.94a29.32,29.32,0,0,0-.35-12Zm-56.62,20.87a25.49,25.49,0,0,1-5.22-8.5l-19.28,7.83c0,1.13,0,2.27.08,3.41h1.28l1.21,0q11.82-.32,23.45-1.29A19.33,19.33,0,0,1,1546.61,1191.79Zm0,0a25.49,25.49,0,0,1-5.22-8.5l-19.28,7.83c0,1.13,0,2.27.08,3.41h1.28l1.21,0q11.82-.32,23.45-1.29A19.33,19.33,0,0,1,1546.61,1191.79Zm0,0a25.49,25.49,0,0,1-5.22-8.5l-19.28,7.83c0,1.13,0,2.27.08,3.41h1.28l1.21,0q11.82-.32,23.45-1.29A19.33,19.33,0,0,1,1546.61,1191.79Zm0,0a25.49,25.49,0,0,1-5.22-8.5l-19.28,7.83c0,1.13,0,2.27.08,3.41h1.28l1.21,0q11.82-.32,23.45-1.29A19.33,19.33,0,0,1,1546.61,1191.79Zm0,0a25.49,25.49,0,0,1-5.22-8.5l-19.28,7.83c0,1.13,0,2.27.08,3.41h1.28l1.21,0q11.82-.32,23.45-1.29A19.33,19.33,0,0,1,1546.61,1191.79Zm0,0a25.49,25.49,0,0,1-5.22-8.5l-19.28,7.83c0,1.13,0,2.27.08,3.41h1.28l1.21,0q11.82-.32,23.45-1.29A19.33,19.33,0,0,1,1546.61,1191.79Zm0,0a25.49,25.49,0,0,1-5.22-8.5l-19.28,7.83-4.67,1.88c.22.55.44,1.08.68,1.6l1.2,0h1.19l1.68,0h1.28l1.21,0q11.82-.32,23.45-1.29A19.33,19.33,0,0,1,1546.61,1191.79Z" transform="translate(-203.04 -296.66)"/><path class="cls-30" d="M1787.21,1087c-140.56,129.26-315.42,129-493.3,57.34h0c-104.1-41.92-214.21-114.67-274.06-208.43-81-125.09-52.72-232.7,9.71-367.28,82.85-178.74,217-284.7,414.33-262.84,253.26,28,413.15,212.24,456.9,456.89C1922.82,885.92,1876.33,1005.06,1787.21,1087Z" transform="translate(-203.04 -296.66)"/></svg>